<svg width="33" height="32" viewBox="0 0 33 32" fill="none" xmlns="http://www.w3.org/2000/svg">
<g clip-path="url(#clip0_31_37)">
<path d="M16.48 32C25.3055 32 32.46 24.8455 32.46 16.02C32.46 7.1945 25.3055 0.0400085 16.48 0.0400085C7.65449 0.0400085 0.5 7.1945 0.5 16.02C0.5 24.8455 7.65449 32 16.48 32Z" fill="url(#paint0_linear_31_37)"/>
<path d="M32.28 14.64L31.96 14.97L32.31 15.32H32.32C32.33 15.54 32.35 15.77 32.36 16.01L31.38 15.03L32.25 14.16C32.27 14.32 32.29 14.49 32.3 14.65L32.28 14.64ZM17.13 31.87C17.13 31.87 17.03 31.87 16.98 31.87H16.5L15.79 31.16C15.63 31 15.65 30.73 15.82 30.55L16.62 29.75C16.8 29.57 17.07 29.56 17.23 29.72L18.38 30.87L18.06 31.19L17.62 30.75L16.82 31.55L17.13 31.86V31.87ZM16.55 31.29L17.35 30.49L16.89 30.03L16.09 30.83L16.55 31.29ZM31.9 19.72C31.75 19.83 31.6 19.95 31.47 20.09C31.59 20.02 31.72 19.96 31.86 19.9C31.84 19.96 31.83 20.02 31.81 20.08C31.56 20.2 31.32 20.34 31.1 20.51C31.04 20.59 30.99 20.66 30.93 20.74C31.17 20.62 31.44 20.52 31.71 20.43C31.69 20.49 31.68 20.56 31.66 20.62C31.34 20.72 31.04 20.83 30.78 20.98C30.72 21.09 30.66 21.2 30.6 21.32C30.88 21.21 31.19 21.13 31.51 21.07C31.49 21.12 31.47 21.17 31.45 21.23C31.12 21.3 30.81 21.39 30.52 21.51C30.28 22.1 30.13 22.76 30.09 23.49C30.12 23.44 30.15 23.4 30.19 23.36L30.86 22.69C30.59 23.27 30.28 23.84 29.95 24.38C29.9 23.33 30.03 22.39 30.33 21.59C30.21 21.64 30.1 21.7 29.99 21.76C29.54 22.54 29.3 23.51 29.29 24.62C29.45 24.62 29.62 24.62 29.78 24.64C29.75 24.69 29.72 24.74 29.69 24.78C29.55 24.78 29.41 24.76 29.28 24.76C29.28 24.94 29.29 25.13 29.3 25.31C29.24 25.4 29.17 25.48 29.11 25.57C28.9 25.56 28.69 25.55 28.49 25.55C28.49 25.77 28.49 26 28.52 26.24H28.6C28.53 26.32 28.46 26.39 28.39 26.47V26.38C28.15 26.36 27.92 26.35 27.7 26.35C27.7 26.57 27.7 26.79 27.73 27.02H27.89C27.89 27.02 27.81 27.12 27.76 27.17H27.74V27.19C27.7 27.24 27.65 27.28 27.6 27.32V27.16C27.39 27.14 27.2 27.14 27 27.13L25.94 28.19L26.16 28.11L26.24 28.31L27.04 27.51C27.15 27.4 27.31 27.39 27.43 27.46C26.95 27.92 26.44 28.34 25.91 28.74C25.89 28.71 25.86 28.69 25.85 28.65L25.8 28.53L25.73 28.36C25.63 28.11 25.69 27.82 25.88 27.63L26.37 27.14C25.65 27.19 24.99 27.33 24.42 27.57C24.18 28.15 24.04 28.8 23.99 29.53C24 29.52 24.01 29.5 24.02 29.49L25.15 28.36L25.28 28.69C25.31 28.75 25.29 28.82 25.24 28.87L24.35 29.76C24.18 29.86 24 29.96 23.82 30.06C23.82 30.03 23.82 30.01 23.82 29.98C23.82 29.96 23.82 29.94 23.82 29.92C23.83 29.08 23.97 28.33 24.22 27.66C24.1 27.71 23.99 27.77 23.88 27.83C23.48 28.53 23.26 29.39 23.2 30.35C23.15 30.37 23.1 30.4 23.05 30.42C23.09 29.5 23.28 28.67 23.63 27.97C23.55 28.02 23.47 28.08 23.4 28.14C22.88 28.82 22.56 29.69 22.44 30.69C22.39 30.71 22.34 30.73 22.28 30.75C22.37 29.9 22.6 29.14 22.97 28.51C22.34 29.14 21.93 29.97 21.73 30.95C21.68 30.97 21.62 30.99 21.57 31.01C21.77 29.96 22.21 29.07 22.87 28.4C23 28.27 23.14 28.15 23.29 28.03C23.4 27.88 23.52 27.74 23.66 27.61C23.8 27.48 23.93 27.35 24.08 27.24C24.19 27.09 24.32 26.95 24.45 26.82C24.58 26.69 24.72 26.57 24.87 26.45C24.98 26.3 25.11 26.16 25.24 26.03C25.87 25.4 26.7 24.97 27.67 24.76C27.88 23.78 28.31 22.96 28.94 22.33C29.07 22.2 29.21 22.08 29.36 21.96C29.47 21.81 29.6 21.67 29.73 21.54C29.86 21.41 30 21.28 30.15 21.17C30.26 21.02 30.39 20.88 30.52 20.75C30.65 20.62 30.79 20.5 30.94 20.38C31.05 20.23 31.17 20.09 31.31 19.96C31.49 19.78 31.69 19.62 31.9 19.48C31.88 19.55 31.86 19.62 31.85 19.69L31.9 19.72ZM24.47 27.21C24.39 27.26 24.31 27.32 24.24 27.37C24.18 27.44 24.13 27.52 24.08 27.6C24.17 27.56 24.26 27.51 24.35 27.48C24.39 27.39 24.43 27.3 24.47 27.22V27.21ZM24.59 26.96C24.59 26.96 24.59 26.96 24.58 26.97L24.59 26.96ZM27.59 27.02C27.57 26.79 27.56 26.57 27.56 26.36C26.45 26.38 25.49 26.61 24.7 27.06C24.64 27.17 24.58 27.28 24.53 27.4C25.13 27.17 25.81 27.04 26.55 27.01L27.12 26.44L27.25 26.77C27.28 26.83 27.26 26.9 27.21 26.95L27.15 27.01C27.29 27.01 27.44 27.02 27.58 27.03L27.59 27.02ZM27.6 25.61C26.58 25.73 25.71 26.05 25.03 26.58C24.97 26.66 24.92 26.73 24.86 26.81C25.62 26.43 26.54 26.22 27.57 26.21C27.57 26 27.58 25.8 27.6 25.61ZM27.69 24.94C26.76 25.15 25.99 25.56 25.39 26.16C26.02 25.79 26.77 25.55 27.62 25.46C27.64 25.28 27.67 25.11 27.7 24.94H27.69ZM28.38 26.24C28.36 26.01 28.35 25.78 28.35 25.56C28.14 25.56 27.94 25.57 27.74 25.59C27.72 25.79 27.71 26 27.71 26.21C27.93 26.21 28.15 26.21 28.38 26.24ZM28.39 24.83C28.2 24.85 28.02 24.88 27.85 24.91C27.81 25.08 27.79 25.27 27.77 25.45C27.96 25.43 28.16 25.42 28.36 25.42C28.36 25.22 28.37 25.02 28.39 24.83ZM29.1 22.45C28.5 23.05 28.09 23.83 27.88 24.75C28.05 24.72 28.22 24.69 28.4 24.67C28.49 23.83 28.73 23.08 29.1 22.44V22.45ZM29.18 25.45C29.16 25.22 29.15 25 29.15 24.78C28.94 24.78 28.73 24.79 28.53 24.81C28.51 25.01 28.5 25.21 28.5 25.42C28.72 25.42 28.95 25.42 29.18 25.45ZM29.75 21.92C29.67 21.97 29.59 22.03 29.52 22.09C28.99 22.78 28.67 23.65 28.55 24.66C28.75 24.64 28.95 24.63 29.15 24.63C29.16 23.6 29.37 22.68 29.75 21.92ZM29.9 21.66C29.9 21.66 29.9 21.66 29.89 21.67L29.9 21.66ZM30.54 21.14C30.46 21.19 30.39 21.24 30.31 21.3C30.25 21.37 30.2 21.45 30.15 21.53C30.24 21.49 30.32 21.45 30.41 21.41C30.45 21.32 30.49 21.23 30.53 21.14H30.54ZM20.44 28.24L19.58 27.38C19.42 27.22 19.44 26.95 19.61 26.77L20.41 25.97C20.59 25.79 20.86 25.78 21.02 25.94L21.88 26.8C22.04 26.96 22.02 27.23 21.85 27.41L21.05 28.21C20.87 28.39 20.6 28.4 20.44 28.24ZM19.88 27.04L20.78 27.94L21.58 27.14L20.68 26.24L19.88 27.04ZM23.25 10.53L22.39 9.67C22.23 9.51 22.25 9.24 22.42 9.06L23.22 8.26C23.4 8.08 23.67 8.07 23.83 8.23L24.69 9.09C24.85 9.25 24.83 9.52 24.66 9.7L23.86 10.5C23.68 10.68 23.41 10.69 23.25 10.53ZM22.69 9.33L23.59 10.23L24.39 9.43L23.49 8.53L22.69 9.33ZM12.53 21.82L12.26 21.55L11.38 22.43L10.21 21.26L9.88999 21.58L11.33 23.02L12.53 21.82ZM12.99 20.79L12.13 19.93C11.97 19.77 11.99 19.5 12.16 19.32L12.96 18.52C13.14 18.34 13.41 18.33 13.57 18.49L14.43 19.35C14.59 19.51 14.57 19.78 14.4 19.96L13.6 20.76C13.42 20.94 13.15 20.95 12.99 20.79ZM12.43 19.59L13.33 20.49L14.13 19.69L13.23 18.79L12.43 19.59ZM21.83 11.42L21.03 12.22L21.58 12.77L21.26 13.09L19.82 11.65L20.94 10.53C21.12 10.35 21.39 10.34 21.55 10.5L21.81 10.76C21.89 10.84 21.93 10.95 21.9 11.08C22.02 11.05 22.12 11.08 22.2 11.15L22.7 11.65L22.38 11.97L21.83 11.42ZM21.56 11.15L21.21 10.8L20.41 11.6L20.76 11.95L21.56 11.15ZM15.4 18.96L16.02 18.34C16.11 18.25 16.16 18.14 16.17 18.03C16.28 18.03 16.39 17.97 16.48 17.88L17.1 17.26C17.28 17.08 17.29 16.81 17.13 16.65L15.98 15.5L15.66 15.82L16.83 16.99L16.15 17.67L14.98 16.5L14.66 16.82L15.83 17.99L15.15 18.67L13.98 17.5L13.66 17.82L14.81 18.97C14.97 19.13 15.24 19.11 15.42 18.94L15.4 18.96ZM18.92 15.43L19.24 15.11L18.09 13.96C17.93 13.8 17.66 13.82 17.48 13.99L16.36 15.11L17.8 16.55L18.12 16.23L16.95 15.06L17.75 14.26L18.92 15.43ZM5.47999 26L6.91999 27.44L7.23998 27.12L5.79999 25.68L5.47999 26ZM10.17 23.31L9.36999 24.11L9.80999 24.55L9.48999 24.87L8.33999 23.72C8.17999 23.56 8.19999 23.29 8.36999 23.11L9.16999 22.31C9.34999 22.13 9.61999 22.12 9.77999 22.28L10.93 23.43L10.61 23.75L10.17 23.31ZM9.88999 23.04L9.42999 22.58L8.62999 23.38L9.08999 23.84L9.88999 23.04ZM8.76999 25.59L9.08999 25.27L7.93999 24.12C7.77999 23.96 7.50999 23.98 7.32999 24.15L6.20999 25.27L7.64999 26.71L7.96999 26.39L6.79999 25.22L7.59999 24.42L8.76999 25.59ZM20.9 13.46L20.63 13.19L19.69 14.13L19.38 13.82L20.29 12.91L20.02 12.64L19.11 13.55L18.8 13.24L19.74 12.3L19.47 12.03L18.21 13.29L19.65 14.73L20.91 13.47L20.9 13.46ZM15.39 31.57C15.23 31.41 14.96 31.43 14.78 31.6L14.6 31.78C14.96 31.82 15.32 31.84 15.68 31.86L15.39 31.57ZM22.85 26.41L23.47 25.79C23.56 25.7 23.61 25.59 23.62 25.48C23.73 25.48 23.84 25.42 23.93 25.33L24.55 24.71C24.73 24.53 24.74 24.26 24.58 24.1L23.43 22.95L23.11 23.27L24.28 24.44L23.6 25.12L22.43 23.95L22.11 24.27L23.28 25.44L22.6 26.12L21.43 24.95L21.11 25.27L22.26 26.42C22.42 26.58 22.69 26.56 22.87 26.39L22.85 26.41ZM17.67 28.71L17.35 29.03L18.79 30.47L19.99 29.27L19.72 29L18.84 29.88L17.67 28.71ZM28.35 20.91L28.08 20.64L27.14 21.58L26.83 21.27L27.74 20.36L27.47 20.09L26.56 21L26.25 20.69L27.19 19.75L26.92 19.48L25.66 20.74L27.1 22.18L28.36 20.92L28.35 20.91ZM27.5 6.86L26.06 5.42L25.74 5.74L27.18 7.18L27.5 6.86ZM32.14 16.54C32.3 16.7 32.28 16.97 32.11 17.15L31.31 17.95C31.13 18.13 30.86 18.14 30.7 17.98L29.84 17.12C29.68 16.96 29.7 16.69 29.87 16.51L30.67 15.71C30.85 15.53 31.12 15.52 31.28 15.68L32.14 16.54ZM31.83 16.88L30.93 15.98L30.13 16.78L31.03 17.68L31.83 16.88ZM26.38 22.88L26.7 22.56L25.55 21.41C25.39 21.25 25.12 21.27 24.94 21.44L23.82 22.56L25.26 24L25.58 23.68L24.41 22.51L25.21 21.71L26.38 22.88ZM5.05999 26.96L5.21999 27.12L5.53999 26.8L5.39999 26.66C5.23999 26.5 4.96999 26.52 4.78999 26.69L4.76999 26.71C4.85999 26.8 4.93999 26.9 5.02999 26.99L5.05999 26.96ZM29.28 18.88L28.48 19.68L29.03 20.23L28.71 20.55L27.27 19.11L28.39 17.99C28.57 17.81 28.84 17.8 29 17.96L29.26 18.22C29.34 18.3 29.38 18.41 29.35 18.54C29.47 18.51 29.57 18.54 29.65 18.61L30.15 19.11L29.83 19.43L29.28 18.88ZM29.01 18.6L28.66 18.25L27.86 19.05L28.21 19.4L29.01 18.6ZM13.21 5.07L12.41 5.87L12.85 6.31L12.53 6.63L11.38 5.48C11.22 5.32 11.24 5.05 11.41 4.87L12.21 4.07C12.39 3.89 12.66 3.88 12.82 4.04L13.97 5.19L13.65 5.51L13.21 5.07ZM12.94 4.79L12.48 4.33L11.68 5.13L12.14 5.59L12.94 4.79ZM12.28 31.32C12.7 30.75 12.99 30.06 13.14 29.28C12.96 29.31 12.78 29.33 12.6 29.34C12.54 30.06 12.39 30.71 12.14 31.28C12.09 31.27 12.04 31.26 11.98 31.24C12.23 30.68 12.4 30.05 12.45 29.35C12.25 29.36 12.04 29.37 11.82 29.36C11.82 30 11.76 30.59 11.63 31.14C11.58 31.13 11.54 31.11 11.5 31.09C11.63 30.56 11.69 29.98 11.68 29.36C11.51 29.36 11.33 29.34 11.15 29.33H10.99L11 29.48C11.04 29.98 11.03 30.45 11 30.91C10.96 30.89 10.91 30.88 10.87 30.86C10.87 30.82 10.88 30.78 10.89 30.74C10.87 30.77 10.85 30.79 10.83 30.82L10.81 30.84C10.66 30.78 10.51 30.74 10.36 30.68L10.59 30.45L10.47 30.14L10.07 30.54C9.92999 30.48 9.78999 30.41 9.64999 30.34L10.31 29.68C10.48 29.51 10.77 29.57 10.86 29.79L10.9 29.89C10.9 29.76 10.89 29.62 10.87 29.49V29.31C10.66 29.3 10.47 29.29 10.28 29.29L9.35999 30.21C9.23999 30.15 9.11999 30.1 9.00999 30.04C9.03999 29.96 9.08999 29.88 9.14999 29.82L9.65999 29.31C9.13999 29.34 8.66998 29.44 8.21999 29.58C8.15999 29.55 8.10999 29.51 8.04999 29.48C8.58999 29.31 9.16999 29.19 9.80999 29.16L10.36 28.61L10.49 28.94C10.52 29 10.5 29.07 10.45 29.12L10.41 29.16C10.55 29.16 10.69 29.17 10.83 29.18C10.81 28.95 10.81 28.73 10.8 28.52C9.68999 28.54 8.72998 28.77 7.94999 29.22C7.91999 29.27 7.89999 29.33 7.86999 29.38C7.76999 29.32 7.66999 29.26 7.57999 29.2C7.63999 29.14 7.68999 29.07 7.74999 29.01C7.87999 28.88 8.01999 28.76 8.16999 28.64C8.27999 28.49 8.40999 28.35 8.53999 28.22C9.16999 27.59 9.98999 27.16 10.97 26.95C11.18 25.97 11.61 25.15 12.24 24.52C12.37 24.39 12.51 24.27 12.66 24.15C12.77 24 12.9 23.86 13.03 23.73C13.16 23.6 13.3 23.47 13.45 23.36C13.56 23.21 13.69 23.07 13.82 22.94C13.95 22.81 14.09 22.69 14.24 22.57C14.35 22.42 14.47 22.28 14.61 22.15C15.29 21.47 16.18 21.03 17.26 20.84C17.45 19.77 17.9 18.87 18.57 18.19C18.7 18.06 18.84 17.94 18.99 17.82C19.1 17.67 19.22 17.53 19.36 17.4C19.49 17.27 19.63 17.14 19.78 17.03C19.89 16.88 20.02 16.74 20.15 16.61C20.28 16.48 20.42 16.36 20.57 16.24C20.68 16.09 20.81 15.95 20.94 15.82C21.57 15.19 22.4 14.76 23.37 14.55C23.58 13.57 24.01 12.75 24.64 12.12C24.77 11.99 24.91 11.87 25.06 11.75C25.17 11.6 25.3 11.46 25.43 11.33C25.56 11.2 25.7 11.07 25.85 10.96C25.96 10.81 26.09 10.67 26.22 10.54C26.35 10.41 26.49 10.29 26.64 10.17C26.75 10.02 26.87 9.88 27.01 9.75C27.69 9.07 28.58 8.63 29.66 8.44C29.72 8.14 29.79 7.85 29.89 7.58C29.92 7.63 29.95 7.69 29.99 7.74C29.92 7.96 29.86 8.18 29.82 8.42C30 8.39 30.18 8.37 30.36 8.36C30.4 8.44 30.45 8.52 30.49 8.6C30.49 8.77 30.47 8.95 30.48 9.13C30.57 9.13 30.66 9.14 30.76 9.15C30.78 9.2 30.81 9.25 30.83 9.3C30.71 9.3 30.6 9.28 30.49 9.28C30.49 9.45 30.51 9.63 30.52 9.81V9.99C30.75 10.01 30.96 10.01 31.16 10.01C31.18 10.06 31.19 10.11 31.21 10.16C30.99 10.16 30.77 10.16 30.54 10.13C30.56 10.36 30.57 10.58 30.57 10.8C30.78 10.8 30.99 10.79 31.19 10.77C31.21 10.57 31.22 10.37 31.22 10.17C31.27 10.28 31.3 10.4 31.35 10.52C31.35 10.6 31.35 10.68 31.34 10.76C31.37 10.76 31.4 10.75 31.44 10.74C31.46 10.79 31.47 10.83 31.49 10.88C31.44 10.88 31.38 10.9 31.33 10.9C31.24 11.74 31 12.49 30.63 13.12C31.1 12.65 31.44 12.08 31.67 11.41C31.69 11.49 31.71 11.57 31.73 11.65C31.49 12.26 31.16 12.79 30.73 13.22C30.6 13.35 30.46 13.47 30.31 13.59C30.2 13.74 30.07 13.88 29.94 14.01C29.81 14.14 29.67 14.27 29.52 14.38C29.41 14.53 29.28 14.67 29.15 14.8C29.02 14.93 28.88 15.05 28.73 15.17C28.62 15.32 28.5 15.46 28.36 15.59C27.68 16.27 26.79 16.71 25.71 16.9C25.52 17.97 25.07 18.87 24.4 19.55C24.27 19.68 24.13 19.8 23.98 19.92C23.87 20.07 23.75 20.21 23.61 20.34C23.48 20.47 23.34 20.6 23.19 20.71C23.08 20.86 22.95 21 22.82 21.13C22.69 21.26 22.55 21.38 22.4 21.5C22.29 21.65 22.16 21.79 22.03 21.92C21.4 22.55 20.57 22.98 19.6 23.19C19.39 24.17 18.96 24.99 18.33 25.62C18.2 25.75 18.06 25.87 17.91 25.99C17.8 26.14 17.67 26.28 17.54 26.41C17.41 26.54 17.27 26.67 17.12 26.78C17.01 26.93 16.88 27.07 16.75 27.2C16.62 27.33 16.48 27.45 16.33 27.57C16.22 27.72 16.1 27.86 15.96 27.99C15.28 28.67 14.39 29.11 13.31 29.3C13.16 30.11 12.87 30.82 12.45 31.41C12.4 31.4 12.35 31.38 12.3 31.37L12.28 31.32ZM7.85999 29.09C7.85999 29.09 7.85999 29.09 7.84999 29.1L7.85999 29.09ZM15.84 27.84C15.15 28.24 14.32 28.49 13.38 28.56C13.37 28.74 13.34 28.92 13.32 29.1C14.34 28.91 15.19 28.48 15.84 27.84ZM13.35 26.81H13.5L13.33 26.4C13.33 26.54 13.34 26.67 13.35 26.81ZM16.37 27.18C15.54 27.6 14.54 27.8 13.4 27.78C13.4 27.99 13.4 28.2 13.39 28.41C14.51 28.32 15.46 27.98 16.2 27.42C16.26 27.34 16.31 27.27 16.37 27.19V27.18ZM16.7 26.6C16.09 26.83 15.4 26.97 14.64 26.99L14.24 27.39C14.07 27.56 13.78 27.5 13.69 27.28L13.56 26.96C13.56 26.96 13.53 26.96 13.52 26.96H13.36L13.37 27.11C13.39 27.29 13.4 27.46 13.4 27.64C14.62 27.66 15.67 27.42 16.52 26.94C16.58 26.83 16.64 26.72 16.7 26.6ZM17.15 26.4C17.06 26.44 16.98 26.48 16.89 26.52C16.85 26.61 16.81 26.7 16.77 26.79C16.85 26.74 16.92 26.69 17 26.63C17.06 26.56 17.11 26.48 17.16 26.4H17.15ZM17.42 26.25C17.42 26.25 17.42 26.25 17.43 26.24L17.42 26.25ZM18.75 23.26C18.55 23.28 18.35 23.29 18.15 23.29C18.14 24.32 17.93 25.24 17.55 26C17.63 25.95 17.71 25.89 17.78 25.83C18.31 25.14 18.63 24.27 18.75 23.26ZM18.8 22.36C18.8 22.14 18.8 21.91 18.77 21.67H18.6C18.42 21.65 18.24 21.64 18.07 21.64C18.07 21.81 18.09 21.99 18.1 22.17V22.34C18.35 22.36 18.58 22.37 18.8 22.37V22.36ZM18.12 22.48C18.14 22.71 18.15 22.93 18.15 23.15C18.36 23.15 18.57 23.14 18.77 23.12C18.79 22.92 18.8 22.72 18.8 22.51C18.58 22.51 18.35 22.51 18.12 22.48ZM18.76 21.53V21.38C18.73 21.2 18.72 21.03 18.72 20.85C18.5 20.85 18.29 20.85 18.08 20.86C18.07 21.06 18.06 21.27 18.07 21.48C18.25 21.48 18.43 21.5 18.61 21.51H18.76V21.53ZM19.42 23.17C19.25 23.2 19.08 23.23 18.9 23.25C18.81 24.09 18.57 24.84 18.2 25.48C18.8 24.88 19.21 24.1 19.42 23.18V23.17ZM19.54 22.47C19.35 22.49 19.15 22.5 18.95 22.5C18.95 22.7 18.94 22.9 18.92 23.09C19.1 23.07 19.29 23.04 19.46 23.01C19.5 22.83 19.52 22.65 19.54 22.47ZM19.59 21.71C19.37 21.71 19.15 21.71 18.92 21.68C18.94 21.91 18.95 22.14 18.95 22.36C19.16 22.36 19.36 22.35 19.56 22.33C19.58 22.13 19.59 21.92 19.59 21.71ZM19.59 21.57C19.59 21.35 19.59 21.13 19.56 20.9H19.38C19.21 20.88 19.03 20.87 18.86 20.87C18.86 21.04 18.88 21.21 18.89 21.38V21.55C19.13 21.57 19.36 21.58 19.58 21.58L19.59 21.57ZM21.91 21.76C21.28 22.13 20.53 22.37 19.68 22.46C19.66 22.64 19.63 22.81 19.6 22.98C20.53 22.77 21.3 22.36 21.9 21.76H21.91ZM19.69 20.58V20.75C19.76 20.75 19.82 20.75 19.88 20.76L19.67 20.24C19.67 20.35 19.68 20.46 19.69 20.57V20.58ZM22.44 21.11C21.68 21.49 20.76 21.7 19.73 21.71C19.73 21.92 19.72 22.12 19.7 22.31C20.72 22.19 21.59 21.87 22.27 21.34C22.33 21.26 22.38 21.19 22.44 21.11ZM22.71 20.96C22.71 20.96 22.71 20.96 22.72 20.95L22.71 20.96ZM22.77 20.53C22.16 20.76 21.47 20.9 20.71 20.92L20.51 21.12C20.34 21.29 20.05 21.23 19.96 21.01L19.92 20.92C19.85 20.92 19.77 20.92 19.7 20.91C19.72 21.14 19.73 21.36 19.73 21.57C20.84 21.55 21.81 21.32 22.59 20.87C22.65 20.76 22.71 20.65 22.76 20.53H22.77ZM23.23 20.32C23.14 20.36 23.05 20.41 22.96 20.44C22.92 20.53 22.88 20.62 22.84 20.7C22.92 20.65 23 20.59 23.07 20.54C23.13 20.47 23.18 20.39 23.23 20.31V20.32ZM24.08 16.96C23.91 16.96 23.73 16.94 23.55 16.93H23.39L23.4 17.08C23.5 18.29 23.38 19.36 23.03 20.25C23.15 20.2 23.26 20.14 23.37 20.08C23.85 19.23 24.09 18.18 24.07 16.96H24.08ZM24.85 16.95C24.65 16.96 24.44 16.97 24.22 16.96C24.24 18.1 24.03 19.1 23.62 19.93C23.7 19.88 23.78 19.82 23.85 19.76C24.42 19.02 24.75 18.07 24.84 16.95H24.85ZM24.14 15.31C24.14 15.53 24.14 15.76 24.17 16H24.34C24.52 16.02 24.7 16.03 24.87 16.03C24.87 15.86 24.85 15.68 24.84 15.5V15.33C24.59 15.31 24.36 15.3 24.14 15.3V15.31ZM24.82 15.19C24.8 14.96 24.79 14.74 24.79 14.52C24.58 14.52 24.37 14.53 24.17 14.55C24.15 14.75 24.14 14.95 24.14 15.16C24.36 15.16 24.59 15.16 24.82 15.19ZM24.34 16.15H24.19V16.3C24.21 16.48 24.22 16.65 24.22 16.83C24.44 16.83 24.65 16.83 24.86 16.82C24.87 16.62 24.88 16.41 24.87 16.2C24.69 16.2 24.51 16.18 24.33 16.17L24.34 16.15ZM25.54 16.88C25.36 16.91 25.18 16.93 25 16.94C24.93 17.88 24.68 18.71 24.28 19.4C24.92 18.76 25.35 17.9 25.54 16.88ZM24.97 15.2H25.14C25.31 15.22 25.49 15.23 25.66 15.23C25.66 15.06 25.64 14.89 25.63 14.72V14.55C25.39 14.53 25.16 14.52 24.94 14.52C24.94 14.74 24.94 14.97 24.97 15.2ZM25.63 16.17C25.43 16.18 25.23 16.19 25.02 16.18C25.02 16.39 25.02 16.59 25.01 16.79C25.2 16.77 25.39 16.75 25.57 16.72C25.6 16.54 25.62 16.35 25.64 16.16L25.63 16.17ZM25.66 15.38C25.49 15.38 25.31 15.36 25.13 15.35H24.98V15.5C25 15.68 25.01 15.86 25.01 16.04C25.22 16.04 25.43 16.04 25.64 16.03C25.65 15.82 25.66 15.61 25.65 15.39L25.66 15.38ZM28.24 15.44C27.55 15.84 26.72 16.09 25.78 16.16C25.77 16.34 25.74 16.52 25.72 16.7C26.74 16.51 27.6 16.08 28.24 15.44ZM25.75 14.42H25.92L25.72 13.93C25.72 14.09 25.73 14.25 25.74 14.42H25.75ZM28.77 14.78C27.94 15.2 26.94 15.4 25.8 15.38C25.8 15.59 25.8 15.8 25.79 16.01C26.91 15.92 27.86 15.58 28.6 15.02C28.66 14.94 28.71 14.87 28.77 14.79V14.78ZM29.1 14.2C28.49 14.43 27.8 14.57 27.04 14.59L26.65 14.98C26.48 15.15 26.19 15.09 26.1 14.87L25.98 14.57C25.98 14.57 25.94 14.57 25.92 14.57H25.76L25.77 14.72C25.79 14.9 25.8 15.07 25.8 15.25C27.02 15.27 28.08 15.03 28.92 14.55C28.98 14.44 29.04 14.33 29.1 14.21V14.2ZM29.55 14C29.46 14.04 29.38 14.08 29.29 14.12C29.25 14.21 29.21 14.3 29.17 14.39C29.25 14.34 29.32 14.29 29.4 14.23C29.46 14.16 29.51 14.08 29.56 14H29.55ZM29.82 13.85C29.82 13.85 29.82 13.85 29.83 13.84L29.82 13.85ZM29.95 13.6C30.03 13.55 30.11 13.49 30.18 13.43C30.7 12.74 31.03 11.88 31.15 10.86C30.95 10.88 30.75 10.89 30.55 10.89C30.53 11.92 30.33 12.83 29.95 13.59V13.6ZM30.38 10.08H30.2C30.03 10.05 29.86 10.04 29.69 10.04C29.69 10.21 29.71 10.38 29.72 10.55V10.73C29.96 10.75 30.19 10.76 30.41 10.76C30.41 10.54 30.41 10.31 30.38 10.08ZM29.71 9.11C29.91 9.1 30.11 9.09 30.32 9.1C30.32 8.89 30.32 8.69 30.33 8.49C30.14 8.51 29.95 8.53 29.77 8.56C29.74 8.74 29.72 8.93 29.7 9.12L29.71 9.11ZM29.69 9.89C29.86 9.89 30.04 9.91 30.22 9.92H30.37L30.36 9.77C30.34 9.59 30.33 9.41 30.33 9.23C30.12 9.23 29.91 9.23 29.7 9.24C29.69 9.45 29.68 9.66 29.69 9.88V9.89ZM29.37 13.93C29.49 13.88 29.6 13.82 29.71 13.76C30.16 12.98 30.39 12.02 30.41 10.91C30.19 10.91 29.97 10.91 29.75 10.88C29.83 12.03 29.71 13.06 29.37 13.93ZM27.11 9.84C27.8 9.44 28.63 9.19 29.57 9.12C29.58 8.94 29.61 8.76 29.63 8.58C28.61 8.77 27.76 9.2 27.11 9.84ZM29.01 10.55L28.88 10.68C29.06 10.68 29.24 10.7 29.43 10.71H29.59L29.58 10.56C29.56 10.38 29.55 10.21 29.55 10.03C29.33 10.03 29.12 10.03 28.92 10.04L29.05 10.36C29.08 10.42 29.06 10.49 29.01 10.54V10.55ZM26.58 10.49C27.41 10.07 28.41 9.87 29.55 9.89C29.55 9.68 29.55 9.47 29.56 9.26C28.44 9.35 27.49 9.69 26.75 10.25C26.69 10.33 26.64 10.4 26.58 10.48V10.49ZM26.25 11.08C26.85 10.85 27.53 10.72 28.27 10.69L28.9 10.06C27.95 10.12 27.11 10.35 26.42 10.75C26.36 10.86 26.3 10.97 26.24 11.09L26.25 11.08ZM26.17 11.26C25.93 11.85 25.78 12.51 25.74 13.24C25.77 13.19 25.8 13.15 25.84 13.11L26.97 11.98L27.1 12.31C27.13 12.37 27.11 12.44 27.06 12.49L25.9 13.65L26.13 13.57L26.48 14.44C26.48 14.44 26.54 14.44 26.57 14.44L27.56 13.45L27.69 13.78C27.72 13.84 27.7 13.91 27.65 13.96L27.19 14.42C27.93 14.38 28.59 14.23 29.18 13.99C29.55 13.11 29.69 12.05 29.6 10.85H29.42C29.19 10.82 28.96 10.81 28.74 10.8L27.75 11.79L27.97 11.71L28.05 11.91L28.85 11.11C29.02 10.94 29.31 11 29.4 11.22L29.52 11.52C29.62 11.77 29.56 12.05 29.37 12.24L28.15 13.46L28.02 13.13C28 13.07 28.01 13 28.06 12.95L29.14 11.87L29.02 11.56L28.31 12.27L28.22 12.36C28.05 12.53 27.76 12.47 27.67 12.25L27.62 12.13L27.55 11.96C27.45 11.71 27.51 11.42 27.7 11.23L28.13 10.8C27.41 10.85 26.75 10.99 26.18 11.23L26.17 11.26ZM25.79 11.28C25.88 11.24 25.96 11.2 26.05 11.16C26.09 11.07 26.13 10.98 26.17 10.89C26.09 10.94 26.02 10.99 25.94 11.05C25.88 11.12 25.83 11.2 25.78 11.28H25.79ZM25.53 11.42C25.53 11.42 25.53 11.42 25.52 11.43L25.53 11.42ZM24.94 14.38C25.16 14.38 25.38 14.38 25.6 14.41C25.51 13.25 25.64 12.22 25.97 11.35C25.85 11.4 25.74 11.46 25.63 11.52C25.18 12.3 24.94 13.27 24.93 14.38H24.94ZM24.19 14.41C24.39 14.39 24.59 14.38 24.79 14.38C24.8 13.35 25.01 12.43 25.39 11.67C25.31 11.72 25.23 11.78 25.16 11.84C24.63 12.53 24.31 13.4 24.19 14.41ZM23.52 14.51C23.69 14.48 23.86 14.45 24.04 14.43C24.13 13.59 24.37 12.84 24.74 12.2C24.14 12.8 23.73 13.58 23.52 14.5V14.51ZM23.41 15.2C23.6 15.18 23.8 15.17 24 15.17C24 14.97 24.01 14.77 24.03 14.58C23.85 14.6 23.66 14.63 23.49 14.66C23.45 14.84 23.43 15.02 23.41 15.2ZM23.36 15.96C23.58 15.96 23.8 15.96 24.03 15.99C24.01 15.76 24 15.53 24 15.31C23.79 15.31 23.59 15.32 23.39 15.34C23.37 15.54 23.36 15.75 23.36 15.96ZM23.36 16.11C23.36 16.33 23.36 16.55 23.39 16.78H23.57C23.74 16.8 23.92 16.81 24.09 16.81C24.09 16.64 24.07 16.47 24.06 16.3V16.13C23.82 16.11 23.59 16.1 23.37 16.1L23.36 16.11ZM21.03 15.91C21.66 15.54 22.41 15.3 23.26 15.21C23.28 15.03 23.31 14.86 23.34 14.69C22.41 14.9 21.64 15.31 21.04 15.91H21.03ZM23.26 17.09V16.92C23.05 16.9 22.85 16.9 22.66 16.89L21.6 17.95L21.82 17.87L21.9 18.07L22.7 17.27C22.87 17.1 23.16 17.16 23.25 17.38L23.28 17.45C23.28 17.33 23.27 17.21 23.26 17.09ZM20.5 16.57C21.26 16.19 22.18 15.98 23.21 15.97C23.21 15.76 23.22 15.56 23.24 15.37C22.22 15.49 21.35 15.81 20.67 16.34C20.61 16.42 20.56 16.49 20.5 16.57ZM20.24 16.71C20.24 16.71 20.24 16.71 20.23 16.72L20.24 16.71ZM20.18 17.15C20.78 16.92 21.46 16.79 22.2 16.76L22.77 16.19L22.9 16.52C22.93 16.58 22.91 16.65 22.86 16.7L22.8 16.76C22.94 16.76 23.09 16.77 23.23 16.78C23.21 16.55 23.2 16.33 23.2 16.12C22.09 16.14 21.12 16.37 20.34 16.82C20.28 16.93 20.22 17.04 20.17 17.16L20.18 17.15ZM20.1 17.34C19.86 17.92 19.72 18.57 19.67 19.3C19.68 19.29 19.69 19.27 19.7 19.26L20.83 18.13L20.96 18.46C20.98 18.52 20.97 18.59 20.92 18.64L19.76 19.8L19.99 19.72L20.37 20.66L21.42 19.61L21.55 19.94C21.58 20 21.56 20.07 21.51 20.12L20.86 20.77C21.6 20.73 22.26 20.58 22.85 20.34C23.09 19.75 23.24 19.08 23.28 18.34C23.26 18.36 23.25 18.38 23.23 18.4L22.01 19.62L21.88 19.29C21.86 19.23 21.87 19.16 21.92 19.11L23 18.03L22.88 17.72L22.17 18.43L22.08 18.52C21.91 18.69 21.62 18.63 21.53 18.41L21.48 18.29L21.41 18.12C21.31 17.87 21.37 17.58 21.56 17.39L22.05 16.9C21.33 16.95 20.67 17.09 20.1 17.33V17.34ZM19.72 17.35C19.81 17.31 19.9 17.26 19.99 17.23C20.03 17.14 20.07 17.05 20.11 16.97C20.03 17.02 19.95 17.08 19.88 17.13C19.82 17.2 19.77 17.28 19.72 17.36V17.35ZM18.86 20.71C19.03 20.71 19.21 20.73 19.39 20.74H19.55L19.54 20.59C19.51 20.3 19.5 20.01 19.51 19.74C19.51 19.72 19.51 19.7 19.51 19.68C19.52 18.84 19.66 18.09 19.91 17.42C19.79 17.47 19.68 17.53 19.57 17.59C19.09 18.44 18.85 19.49 18.87 20.71H18.86ZM18.09 20.72C18.29 20.71 18.5 20.7 18.72 20.71C18.7 19.57 18.91 18.57 19.32 17.74C19.24 17.79 19.16 17.85 19.09 17.91C18.52 18.65 18.19 19.6 18.1 20.72H18.09ZM17.41 20.8C17.59 20.77 17.77 20.75 17.95 20.74C18.02 19.8 18.27 18.97 18.67 18.28C18.03 18.92 17.6 19.78 17.41 20.8ZM17.98 22.47H17.81C17.63 22.45 17.46 22.44 17.29 22.44C17.29 22.61 17.31 22.78 17.32 22.95V23.12C17.56 23.14 17.79 23.15 18.01 23.15C18.01 22.93 18.01 22.7 17.98 22.47ZM17.31 21.51C17.51 21.5 17.71 21.49 17.92 21.5C17.92 21.29 17.92 21.09 17.93 20.89C17.74 20.91 17.55 20.93 17.37 20.96C17.34 21.14 17.32 21.33 17.3 21.52L17.31 21.51ZM17.29 22.29C17.46 22.29 17.64 22.31 17.82 22.32H17.97V22.17C17.95 21.99 17.94 21.81 17.94 21.63C17.73 21.63 17.52 21.63 17.31 21.64C17.3 21.85 17.29 22.06 17.3 22.28L17.29 22.29ZM16.97 26.33C17.09 26.28 17.2 26.22 17.31 26.16C17.76 25.38 18 24.41 18.01 23.3C17.79 23.3 17.57 23.3 17.35 23.27C17.44 24.43 17.31 25.46 16.98 26.33H16.97ZM14.71 22.24C15.4 21.84 16.23 21.59 17.17 21.52C17.18 21.34 17.21 21.16 17.23 20.98C16.21 21.17 15.35 21.6 14.71 22.24ZM14.18 22.89C15.01 22.47 16.01 22.27 17.15 22.29C17.15 22.08 17.15 21.87 17.16 21.66C16.04 21.75 15.09 22.09 14.35 22.65C14.29 22.73 14.24 22.8 14.18 22.88V22.89ZM13.85 23.47C14.45 23.24 15.13 23.11 15.87 23.08L16.49 22.46L16.62 22.79C16.65 22.85 16.63 22.92 16.58 22.97L16.47 23.08C16.65 23.08 16.83 23.1 17.02 23.11H17.18L17.17 22.96C17.15 22.78 17.14 22.61 17.14 22.43C15.92 22.41 14.86 22.65 14.02 23.13C13.96 23.24 13.9 23.35 13.84 23.47H13.85ZM13.77 23.66C13.53 24.24 13.38 24.9 13.34 25.63C13.36 25.59 13.39 25.56 13.42 25.53L14.55 24.4L14.68 24.73C14.71 24.79 14.69 24.86 14.64 24.91L13.48 26.07L13.71 25.99L14.05 26.85C14.05 26.85 14.13 26.85 14.17 26.85L15.14 25.88L15.27 26.21C15.3 26.27 15.28 26.34 15.23 26.39L14.79 26.83C15.53 26.79 16.19 26.64 16.78 26.4C17.15 25.52 17.29 24.45 17.2 23.25H17.02C16.79 23.23 16.56 23.21 16.34 23.21L15.33 24.22L15.55 24.14L15.63 24.34L16.43 23.54C16.6 23.37 16.89 23.43 16.98 23.65L17.1 23.95C17.2 24.2 17.14 24.48 16.95 24.67L15.73 25.89L15.6 25.56C15.58 25.5 15.59 25.43 15.64 25.38L16.72 24.3L16.6 23.99L15.89 24.7L15.8 24.79C15.63 24.96 15.34 24.9 15.25 24.68L15.2 24.56L15.13 24.39C15.03 24.14 15.09 23.85 15.28 23.66L15.72 23.22C15 23.27 14.34 23.41 13.77 23.65V23.66ZM13.39 23.68C13.48 23.64 13.56 23.6 13.65 23.56C13.69 23.47 13.73 23.38 13.77 23.29C13.69 23.34 13.62 23.39 13.54 23.45C13.48 23.52 13.43 23.6 13.38 23.68H13.39ZM13.13 23.82C13.13 23.82 13.13 23.82 13.12 23.83L13.13 23.82ZM12.54 26.77C12.76 26.77 12.98 26.77 13.2 26.8C13.12 25.65 13.24 24.62 13.58 23.75C13.46 23.8 13.35 23.86 13.24 23.92C12.79 24.7 12.56 25.66 12.54 26.77ZM11.8 26.8C12 26.78 12.2 26.77 12.4 26.77C12.42 25.74 12.62 24.83 13 24.07C12.92 24.12 12.84 24.18 12.77 24.24C12.25 24.93 11.92 25.79 11.8 26.81V26.8ZM12.4 26.92C12.19 26.92 11.98 26.93 11.78 26.95C11.76 27.15 11.75 27.35 11.75 27.56C11.97 27.56 12.2 27.56 12.43 27.59C12.41 27.36 12.4 27.14 12.4 26.92ZM11.01 27.59C11.2 27.57 11.4 27.56 11.6 27.56C11.6 27.36 11.61 27.16 11.63 26.97C11.45 26.99 11.27 27.02 11.09 27.06C11.05 27.23 11.03 27.41 11 27.6L11.01 27.59ZM10.96 28.35C11.18 28.35 11.4 28.35 11.63 28.38C11.61 28.15 11.6 27.92 11.6 27.7C11.39 27.7 11.19 27.72 10.99 27.73C10.97 27.93 10.96 28.14 10.96 28.35ZM10.85 27.75C9.83999 27.87 8.96999 28.19 8.27999 28.72C8.21999 28.8 8.16999 28.87 8.10999 28.95C8.86999 28.57 9.77999 28.36 10.81 28.35C10.81 28.14 10.82 27.94 10.84 27.75H10.85ZM10.94 27.08C10.02 27.29 9.23999 27.7 8.64999 28.3C9.27999 27.93 10.03 27.7 10.87 27.6C10.89 27.42 10.92 27.25 10.95 27.08H10.94ZM11.68 29.21C11.68 29.04 11.66 28.87 11.65 28.7V28.52C11.41 28.5 11.18 28.49 10.96 28.49C10.96 28.71 10.96 28.93 10.99 29.16H11.17C11.34 29.19 11.51 29.2 11.68 29.2V29.21ZM12.35 24.6C11.75 25.2 11.35 25.97 11.13 26.89C11.3 26.86 11.47 26.83 11.65 26.81C11.74 25.97 11.98 25.22 12.35 24.59V24.6ZM11.77 28.39H11.95C12.13 28.42 12.3 28.43 12.48 28.43C12.48 28.26 12.46 28.08 12.45 27.9V27.72C12.2 27.7 11.97 27.69 11.75 27.69C11.75 27.91 11.75 28.14 11.78 28.38L11.77 28.39ZM12.48 28.58C12.3 28.58 12.12 28.56 11.94 28.55H11.79L11.8 28.7C11.82 28.88 11.83 29.05 11.83 29.23C12.05 29.23 12.26 29.23 12.47 29.22C12.48 29.02 12.49 28.81 12.48 28.59V28.58ZM12.57 27.59H12.75C12.92 27.62 13.09 27.63 13.26 27.63C13.26 27.46 13.24 27.29 13.23 27.12V26.94C12.99 26.92 12.76 26.91 12.54 26.91C12.54 27.13 12.54 27.36 12.57 27.59ZM12.62 28.44C12.83 28.44 13.04 28.44 13.25 28.43C13.26 28.22 13.27 28.01 13.26 27.79C13.09 27.79 12.91 27.77 12.73 27.76H12.58L12.59 27.91C12.61 28.09 12.62 28.27 12.62 28.45V28.44ZM13.17 29.12C13.2 28.94 13.22 28.75 13.24 28.56C13.04 28.57 12.84 28.58 12.63 28.57C12.63 28.78 12.63 28.98 12.62 29.18C12.81 29.16 13 29.14 13.18 29.11L13.17 29.12ZM17.84 0.750004C18 0.910004 18.27 0.890004 18.45 0.720004L18.81 0.360004C18.65 0.340004 18.5 0.310004 18.34 0.290004L18.18 0.450004L17.97 0.240004C17.75 0.220004 17.52 0.220004 17.3 0.210004L17.85 0.760004L17.84 0.750004ZM16.47 0.160004C16.52 0.180004 16.57 0.210004 16.61 0.250004L17.47 1.11C17.63 1.27 17.61 1.54 17.44 1.72L16.64 2.52C16.46 2.7 16.19 2.71 16.03 2.55L15.17 1.69C15.01 1.53 15.03 1.26 15.2 1.08L16 0.280004C16 0.280004 16.1 0.200004 16.15 0.180004C16.26 0.180004 16.36 0.160004 16.46 0.160004H16.47ZM17.17 1.45L16.27 0.550004L15.47 1.35L16.37 2.25L17.17 1.45ZM11.81 7.34L12.13 7.02L10.98 5.87C10.82 5.71 10.55 5.73 10.37 5.9L9.24999 7.02L10.69 8.46L11.01 8.14L9.83999 6.97L10.64 6.17L11.81 7.34ZM6.21999 28.13C6.39999 27.95 6.40999 27.68 6.24999 27.52L5.66999 26.94L5.30999 27.3C5.39999 27.39 5.49999 27.47 5.58999 27.56L5.61999 27.53L5.93999 27.85H5.92999C6.02999 27.95 6.11999 28.04 6.20999 28.12L6.21999 28.13ZM1.10999 12.14C1.25999 11.82 1.37999 11.48 1.45999 11.1C1.43999 11.1 1.40999 11.1 1.38999 11.11C1.40999 11.06 1.42999 11.01 1.44999 10.95C1.45999 10.95 1.47999 10.95 1.48999 10.95C1.49999 10.88 1.50999 10.82 1.51999 10.75C1.58999 10.55 1.65999 10.34 1.73999 10.15C1.73999 10.18 1.73999 10.22 1.73999 10.25C2.75999 10.13 3.62999 9.81 4.30999 9.28C4.36999 9.2 4.41999 9.13 4.47999 9.05C3.75999 9.41 2.90999 9.6 1.95999 9.64C1.97999 9.59 2.00999 9.54 2.02999 9.49C3.02999 9.44 3.90999 9.22 4.62999 8.81C4.68999 8.7 4.74999 8.59 4.79999 8.47C4.18999 8.7 3.49999 8.84 2.73999 8.86L2.53999 9.06C2.43999 9.16 2.30999 9.17 2.18999 9.13C2.28999 8.92 2.38999 8.7 2.49999 8.49L3.44999 7.54L3.57999 7.87C3.60999 7.93 3.58999 8 3.53999 8.05L2.88999 8.7C3.62999 8.66 4.28999 8.51 4.87999 8.27C5.11999 7.68 5.26999 7.01 5.30999 6.27C5.28999 6.29 5.27999 6.31 5.25999 6.33L4.03999 7.55L3.90999 7.22C3.88999 7.16 3.89999 7.09 3.94999 7.04L5.02999 5.96L4.90999 5.65L4.19999 6.36L4.10999 6.45C4.01999 6.54 3.88999 6.56 3.77999 6.53C4.14999 6.03 4.54999 5.56 4.97999 5.11C5.10999 5.11 5.24999 5.17 5.29999 5.31L5.32999 5.38C5.32999 5.26 5.31999 5.14 5.30999 5.02V4.85C5.30999 4.85 5.24999 4.85 5.22999 4.85C5.29999 4.78 5.36999 4.72 5.42999 4.66C5.42999 4.68 5.42999 4.7 5.42999 4.72H5.60999C5.77999 4.74 5.95999 4.75 6.12999 4.75C6.12999 4.58 6.10999 4.41 6.09999 4.24V4.07H6.07999C6.12999 4.03 6.17999 3.98 6.22999 3.93H6.39999C6.57999 3.95 6.75999 3.96 6.92999 3.96C6.92999 3.79 6.90999 3.61 6.89999 3.43V3.4C6.89999 3.4 6.98999 3.33 7.03999 3.3V3.43C7.05999 3.61 7.06999 3.79 7.07999 3.97C7.28999 3.97 7.49999 3.97 7.70999 3.96C7.71999 3.75 7.72999 3.54 7.71999 3.32C7.54999 3.32 7.36999 3.3 7.18999 3.29H7.06999C7.12999 3.24 7.18999 3.19 7.25999 3.15C7.41999 3.16 7.56999 3.17 7.71999 3.18C7.71999 3.07 7.70999 2.95 7.69999 2.83C7.74999 2.8 7.78999 2.77 7.83999 2.74C7.84999 2.89 7.85999 3.03 7.86999 3.17C9.08999 3.19 10.14 2.95 10.99 2.47C11.05 2.36 11.11 2.25 11.16 2.13C10.55 2.36 9.85999 2.5 9.09999 2.52L8.70999 2.91C8.53999 3.08 8.24999 3.02 8.15999 2.8L8.07999 2.59C8.21999 2.5 8.36999 2.41 8.50999 2.33L8.52998 2.39C8.52998 2.39 8.58999 2.39 8.61999 2.39L8.93999 2.07C9.18999 1.93 9.45999 1.82 9.71999 1.69L9.73999 1.73C9.75999 1.79 9.74999 1.86 9.69999 1.91L9.23999 2.37C9.97999 2.33 10.64 2.18 11.23 1.94C11.36 1.64 11.44 1.31 11.51 0.960004C11.56 0.940004 11.62 0.920004 11.67 0.900004C11.61 1.23 11.53 1.56 11.42 1.85C11.54 1.8 11.65 1.74 11.76 1.68C11.92 1.4 12.04 1.09 12.14 0.770004C12.2 0.750004 12.25 0.740004 12.31 0.730004C12.23 1.01 12.13 1.28 12 1.53C12.08 1.48 12.16 1.42 12.23 1.36C12.4 1.14 12.54 0.890004 12.66 0.630004C12.72 0.620004 12.77 0.600004 12.83 0.590004C12.77 0.730004 12.72 0.870004 12.65 1C12.79 0.860004 12.93 0.700004 13.05 0.540004C13.12 0.520004 13.19 0.500004 13.26 0.490004C13.11 0.710004 12.95 0.920004 12.76 1.11C12.63 1.24 12.49 1.36 12.34 1.48C12.23 1.63 12.1 1.77 11.97 1.9C11.84 2.03 11.7 2.16 11.55 2.27C11.44 2.42 11.31 2.56 11.18 2.69C11.05 2.82 10.91 2.94 10.76 3.06C10.65 3.21 10.53 3.35 10.39 3.48C9.70999 4.16 8.81999 4.6 7.73998 4.79C7.54998 5.86 7.09999 6.76 6.42999 7.44C6.29999 7.57 6.15999 7.69 6.00999 7.81C5.89999 7.96 5.77999 8.1 5.63999 8.23C5.49999 8.36 5.36999 8.49 5.21999 8.6C5.10999 8.75 4.97999 8.89 4.84999 9.02C4.71999 9.15 4.57999 9.27 4.42999 9.39C4.31999 9.54 4.18999 9.68 4.05999 9.81C3.42999 10.44 2.60999 10.87 1.62999 11.08C1.49999 11.69 1.26999 12.22 0.979985 12.7C1.01999 12.51 1.07999 12.33 1.11999 12.15L1.10999 12.14ZM11.85 1.8C11.85 1.8 11.85 1.8 11.86 1.79L11.85 1.8ZM11.21 2.32C11.29 2.27 11.36 2.22 11.44 2.16C11.5 2.09 11.55 2.01 11.6 1.93C11.51 1.97 11.43 2.01 11.34 2.05C11.3 2.14 11.26 2.23 11.22 2.32H11.21ZM7.82999 3.95C8.94999 3.86 9.89999 3.52 10.64 2.96C10.7 2.88 10.75 2.81 10.81 2.73C9.97999 3.15 8.97999 3.35 7.83999 3.33C7.83999 3.54 7.83999 3.75 7.82999 3.96V3.95ZM7.75999 4.63C8.77999 4.44 9.63999 4.01 10.28 3.37C9.58999 3.77 8.75999 4.02 7.81999 4.09C7.80999 4.27 7.77999 4.45 7.75999 4.63ZM6.88999 4.88C6.68999 4.89 6.47999 4.9 6.25999 4.89C6.27999 6.03 6.06999 7.03 5.65999 7.86C5.73999 7.81 5.81999 7.75 5.88999 7.69C6.45999 6.95 6.78999 6 6.87999 4.88H6.88999ZM7.04999 4.73C7.23999 4.71 7.42999 4.69 7.60999 4.66C7.63999 4.48 7.65999 4.29 7.67999 4.1C7.47999 4.11 7.27999 4.12 7.06999 4.11C7.06999 4.32 7.06999 4.52 7.05999 4.72L7.04999 4.73ZM6.31999 7.33C6.95999 6.69 7.38999 5.83 7.57999 4.81C7.39999 4.84 7.21999 4.86 7.03999 4.87C6.96999 5.81 6.71999 6.64 6.31999 7.33ZM6.21999 4.08V4.23C6.24999 4.41 6.25999 4.58 6.25999 4.76C6.47999 4.76 6.68999 4.76 6.89999 4.75C6.90999 4.55 6.91999 4.34 6.90999 4.13C6.72999 4.13 6.54999 4.11 6.36999 4.1H6.21999V4.08ZM5.07999 8.19C5.19999 8.14 5.30999 8.08 5.41999 8.02C5.89999 7.17 6.13999 6.12 6.11999 4.9C5.94999 4.9 5.76999 4.88 5.58999 4.87H5.42999L5.43999 5.02C5.53999 6.23 5.41999 7.3 5.06999 8.19H5.07999ZM4.87999 8.65C4.95999 8.6 5.03999 8.54 5.10999 8.49C5.16999 8.42 5.21999 8.34 5.26999 8.26C5.17999 8.3 5.08999 8.35 4.99999 8.38C4.95999 8.47 4.91999 8.56 4.87999 8.64V8.65ZM4.72999 8.91C4.72999 8.91 4.72998 8.91 4.73998 8.9L4.72999 8.91ZM1.64999 10.92C2.57999 10.71 3.34999 10.3 3.94999 9.7C3.31999 10.07 2.56999 10.31 1.71999 10.4C1.69999 10.58 1.66999 10.75 1.63999 10.92H1.64999ZM3.73999 25.23C3.73999 25.23 3.66999 25.29 3.62999 25.33C3.56999 25.24 3.49999 25.16 3.43999 25.07C3.46999 25.06 3.49999 25.04 3.51999 25.03C3.99999 24.18 4.23999 23.13 4.21999 21.91C4.04999 21.91 3.86999 21.89 3.68999 21.88H3.52999L3.53999 22.03C3.62999 23.09 3.53999 24.04 3.27999 24.86C3.23999 24.8 3.20999 24.74 3.16999 24.68C3.28999 24.24 3.38999 23.79 3.41999 23.28C3.39999 23.31 3.37999 23.33 3.35999 23.36L2.74999 23.97C2.67999 23.84 2.58999 23.72 2.51999 23.59L3.12999 22.98L3.00999 22.67L2.38999 23.29C2.31999 23.15 2.25999 23.01 2.18999 22.87L2.84999 22.21C3.01999 22.04 3.30999 22.1 3.39999 22.32L3.43999 22.42C3.43999 22.29 3.42999 22.15 3.40999 22.02V21.84C3.19999 21.83 3.00999 21.82 2.81999 21.81L2.03999 22.59C1.97999 22.45 1.89999 22.32 1.83999 22.18L2.18999 21.83C2.02999 21.84 1.88999 21.88 1.72999 21.9C1.70999 21.85 1.68999 21.79 1.66999 21.74C1.88999 21.71 2.10999 21.69 2.33999 21.68L2.88999 21.13L3.01999 21.46C3.04999 21.52 3.02999 21.59 2.97999 21.64L2.93999 21.68C3.07999 21.68 3.21999 21.69 3.35999 21.7C3.33999 21.47 3.33999 21.25 3.32999 21.04C2.65999 21.05 2.04999 21.14 1.49999 21.31C1.47999 21.26 1.46999 21.22 1.44999 21.17C2.01999 21 2.64999 20.9 3.32999 20.89C3.32999 20.68 3.33999 20.48 3.35999 20.29C2.59999 20.38 1.92999 20.59 1.34999 20.9C1.33999 20.86 1.31999 20.82 1.29999 20.77C1.89999 20.44 2.58999 20.22 3.36999 20.13C3.38999 19.95 3.41999 19.78 3.44999 19.61C2.58999 19.81 1.85999 20.18 1.27999 20.72C1.25999 20.67 1.25999 20.62 1.23999 20.56C1.83999 20.02 2.58999 19.64 3.47999 19.45C3.68999 18.47 4.11999 17.65 4.74999 17.02C4.87999 16.89 5.01999 16.77 5.16999 16.65C5.27999 16.5 5.40999 16.36 5.53999 16.23C5.66999 16.1 5.80999 15.97 5.95999 15.86C6.06999 15.71 6.19999 15.57 6.32999 15.44C6.45999 15.31 6.59999 15.19 6.74999 15.07C6.85999 14.92 6.97999 14.78 7.11999 14.65C7.79999 13.97 8.68999 13.53 9.76999 13.34C9.95999 12.27 10.41 11.37 11.08 10.69C11.21 10.56 11.35 10.44 11.5 10.32C11.61 10.17 11.73 10.03 11.87 9.9C12 9.77 12.14 9.64 12.29 9.53C12.4 9.38 12.53 9.24 12.66 9.11C12.79 8.98 12.93 8.86 13.08 8.74C13.19 8.59 13.32 8.45 13.45 8.32C14.08 7.69 14.91 7.26 15.88 7.05C16.09 6.07 16.52 5.25 17.15 4.62C17.28 4.49 17.42 4.37 17.57 4.25C17.68 4.1 17.81 3.96 17.94 3.83C18.07 3.7 18.21 3.57 18.36 3.46C18.47 3.31 18.6 3.17 18.73 3.04C18.86 2.91 19 2.79 19.15 2.67C19.26 2.52 19.38 2.38 19.52 2.25C20.1 1.67 20.85 1.27 21.73 1.04C21.81 1.07 21.89 1.1 21.97 1.13C21.03 1.34 20.23 1.74 19.62 2.35C20.31 1.95 21.14 1.7 22.08 1.63C22.09 1.48 22.11 1.34 22.13 1.19C22.18 1.21 22.22 1.22 22.27 1.24C22.25 1.36 22.23 1.49 22.22 1.62C22.42 1.61 22.62 1.6 22.83 1.61C22.83 1.57 22.83 1.52 22.83 1.48C22.88 1.5 22.93 1.53 22.97 1.55C22.97 1.57 22.97 1.59 22.97 1.61C23.02 1.61 23.07 1.61 23.12 1.61C23.23 1.66 23.35 1.72 23.46 1.77C23.29 1.76 23.13 1.75 22.97 1.74C22.97 1.91 22.99 2.09 23 2.27V2.45C23.25 2.47 23.48 2.48 23.7 2.48C23.7 2.29 23.7 2.09 23.68 1.88C23.73 1.91 23.78 1.93 23.83 1.95C23.84 2.13 23.85 2.3 23.85 2.47C24.06 2.47 24.26 2.46 24.46 2.44C24.46 2.4 24.46 2.36 24.46 2.31C24.51 2.34 24.55 2.37 24.6 2.4V2.42C24.61 2.42 24.62 2.42 24.63 2.42C24.69 2.46 24.75 2.49 24.81 2.53C24.73 2.54 24.66 2.56 24.58 2.57C24.56 2.75 24.53 2.92 24.5 3.09C24.79 3.02 25.05 2.93 25.31 2.83C25.36 2.86 25.4 2.9 25.44 2.93C25.13 3.06 24.82 3.17 24.47 3.25C24.26 4.23 23.83 5.05 23.2 5.68C23.07 5.81 22.93 5.93 22.78 6.05C22.67 6.2 22.54 6.34 22.41 6.47C22.28 6.6 22.14 6.73 21.99 6.84C21.88 6.99 21.75 7.13 21.62 7.26C21.49 7.39 21.35 7.51 21.2 7.63C21.09 7.78 20.97 7.92 20.83 8.05C20.15 8.73 19.26 9.17 18.18 9.36C17.99 10.43 17.54 11.33 16.87 12.01C16.74 12.14 16.6 12.26 16.45 12.38C16.34 12.53 16.22 12.67 16.08 12.8C15.95 12.93 15.81 13.06 15.66 13.17C15.55 13.32 15.42 13.46 15.29 13.59C15.16 13.72 15.02 13.84 14.87 13.96C14.76 14.11 14.63 14.25 14.5 14.38C13.87 15.01 13.04 15.44 12.07 15.65C11.86 16.63 11.43 17.45 10.8 18.08C10.67 18.21 10.53 18.33 10.38 18.45C10.27 18.6 10.14 18.74 10.01 18.87C9.87999 19 9.73999 19.13 9.58999 19.24C9.47999 19.39 9.34999 19.53 9.21999 19.66C9.08999 19.79 8.94999 19.91 8.79999 20.03C8.68999 20.18 8.56999 20.32 8.42999 20.45C7.74999 21.13 6.85999 21.57 5.77999 21.76C5.58999 22.83 5.13999 23.73 4.46999 24.41C4.33999 24.54 4.19999 24.66 4.04999 24.78C3.93999 24.93 3.81999 25.07 3.67999 25.2L3.73999 25.23ZM5.68999 21.82C5.50999 21.85 5.32999 21.87 5.14999 21.88C5.07999 22.82 4.82999 23.65 4.42999 24.34C5.06999 23.7 5.49999 22.84 5.68999 21.82ZM4.28999 20.25C4.28999 20.47 4.28999 20.7 4.31999 20.94H4.49999C4.67999 20.97 4.84999 20.98 5.02999 20.98C5.02999 20.81 5.00999 20.63 4.99999 20.45V20.27C4.74999 20.25 4.51999 20.24 4.29999 20.24L4.28999 20.25ZM4.96999 20.13C4.94999 19.9 4.93999 19.68 4.93999 19.46C4.72999 19.46 4.51999 19.47 4.31999 19.49C4.29999 19.69 4.28999 19.89 4.28999 20.1C4.50999 20.1 4.73999 20.1 4.96999 20.13ZM4.32999 21.08V21.24C4.35999 21.42 4.36999 21.59 4.36999 21.77C4.58999 21.77 4.79999 21.77 5.00999 21.76C5.01999 21.56 5.02999 21.35 5.01999 21.13C4.83999 21.13 4.65999 21.11 4.47999 21.1H4.32999V21.08ZM5.11999 20.14H5.29999C5.46999 20.17 5.63999 20.18 5.80999 20.18C5.80999 20.01 5.78999 19.84 5.77999 19.67V19.49C5.53999 19.47 5.30999 19.46 5.08999 19.46C5.08999 19.68 5.08999 19.91 5.11999 20.14ZM5.77999 21.12C5.57999 21.13 5.37999 21.14 5.16999 21.13C5.16999 21.34 5.16999 21.54 5.15999 21.74C5.34999 21.72 5.53999 21.7 5.71999 21.67C5.74999 21.49 5.76999 21.3 5.78999 21.11L5.77999 21.12ZM5.80999 20.33C5.63999 20.33 5.45999 20.31 5.27999 20.3H5.12999L5.13999 20.45C5.15999 20.63 5.16999 20.81 5.16999 20.99C5.37999 20.99 5.58999 20.99 5.79999 20.98C5.80999 20.77 5.81999 20.56 5.80999 20.34V20.33ZM8.37999 20.38C7.68999 20.78 6.85999 21.03 5.91999 21.1C5.90999 21.28 5.87999 21.46 5.85999 21.64C6.87999 21.45 7.72999 21.02 8.37999 20.38ZM5.89999 19.36H6.04999L5.87999 18.95C5.87999 19.09 5.88999 19.22 5.89999 19.36ZM8.91999 19.73C8.08999 20.15 7.08999 20.35 5.94999 20.33C5.94999 20.54 5.94999 20.75 5.93999 20.96C7.05999 20.87 8.00999 20.53 8.74999 19.97C8.80999 19.89 8.85999 19.82 8.91999 19.74V19.73ZM9.23999 19.15C8.62999 19.38 7.93999 19.52 7.17999 19.54L6.77999 19.94C6.60999 20.11 6.31999 20.05 6.22999 19.83L6.09999 19.51C6.09999 19.51 6.06999 19.51 6.05999 19.51H5.89999L5.90999 19.66C5.92999 19.84 5.93999 20.01 5.93999 20.19C7.15999 20.21 8.20999 19.97 9.05999 19.49C9.11999 19.38 9.17999 19.27 9.23999 19.15ZM9.69999 18.95C9.60999 18.99 9.52999 19.03 9.43999 19.07C9.39999 19.16 9.35999 19.25 9.31999 19.34C9.39999 19.29 9.46999 19.24 9.54999 19.18C9.60999 19.11 9.65999 19.03 9.70999 18.95H9.69999ZM9.96999 18.8C9.96999 18.8 9.96999 18.8 9.97999 18.79L9.96999 18.8ZM11.3 15.81C11.1 15.83 10.9 15.84 10.7 15.84C10.69 16.87 10.48 17.79 10.1 18.55C10.18 18.5 10.26 18.44 10.33 18.38C10.86 17.69 11.18 16.82 11.3 15.81ZM11.35 14.91C11.35 14.69 11.35 14.46 11.32 14.22H11.15C10.97 14.2 10.79 14.19 10.62 14.19C10.62 14.36 10.64 14.54 10.65 14.72V14.89C10.9 14.91 11.13 14.92 11.35 14.92V14.91ZM10.67 15.03C10.69 15.26 10.7 15.48 10.7 15.7C10.91 15.7 11.12 15.69 11.32 15.67C11.34 15.47 11.35 15.27 11.35 15.06C11.13 15.06 10.9 15.06 10.67 15.03ZM11.31 14.08V13.93C11.28 13.75 11.27 13.58 11.27 13.4C11.05 13.4 10.84 13.4 10.63 13.41C10.62 13.61 10.61 13.82 10.62 14.03C10.8 14.03 10.98 14.05 11.16 14.06H11.31V14.08ZM11.97 15.72C11.8 15.75 11.63 15.78 11.45 15.8C11.36 16.64 11.12 17.39 10.75 18.03C11.35 17.43 11.76 16.65 11.97 15.73V15.72ZM12.09 15.02C11.9 15.04 11.7 15.05 11.5 15.05C11.5 15.25 11.49 15.45 11.47 15.64C11.65 15.62 11.84 15.59 12.01 15.56C12.05 15.38 12.07 15.2 12.09 15.02ZM12.14 14.26C11.92 14.26 11.7 14.26 11.47 14.23C11.49 14.46 11.5 14.69 11.5 14.91C11.71 14.91 11.91 14.9 12.11 14.88C12.13 14.68 12.14 14.47 12.14 14.26ZM12.14 14.11C12.14 13.89 12.14 13.67 12.11 13.44H11.93C11.76 13.42 11.58 13.41 11.41 13.41C11.41 13.58 11.43 13.75 11.44 13.92V14.09C11.68 14.11 11.91 14.12 12.13 14.12L12.14 14.11ZM14.46 14.31C13.83 14.68 13.08 14.92 12.23 15.01C12.21 15.19 12.18 15.36 12.15 15.53C13.08 15.32 13.85 14.91 14.45 14.31H14.46ZM12.23 13.13V13.3C12.3 13.3 12.36 13.3 12.42 13.31L12.21 12.79C12.21 12.9 12.22 13.01 12.23 13.12V13.13ZM14.99 13.66C14.23 14.04 13.31 14.25 12.28 14.26C12.28 14.47 12.27 14.67 12.25 14.86C13.27 14.74 14.14 14.42 14.82 13.89C14.88 13.81 14.93 13.74 14.99 13.66ZM15.26 13.51C15.26 13.51 15.26 13.51 15.27 13.5L15.26 13.51ZM15.31 13.08C14.7 13.31 14.01 13.45 13.25 13.47L13.05 13.67C12.88 13.84 12.59 13.78 12.5 13.56L12.46 13.47C12.39 13.47 12.31 13.47 12.24 13.46C12.26 13.69 12.27 13.91 12.27 14.12C13.38 14.1 14.35 13.87 15.13 13.42C15.19 13.31 15.25 13.2 15.3 13.08H15.31ZM15.78 12.87C15.69 12.91 15.6 12.96 15.51 12.99C15.47 13.08 15.43 13.17 15.39 13.25C15.47 13.2 15.55 13.14 15.62 13.09C15.68 13.02 15.73 12.94 15.78 12.86V12.87ZM16.63 9.51C16.46 9.51 16.28 9.49 16.1 9.48H15.94L15.95 9.63C16.05 10.84 15.93 11.91 15.58 12.8C15.7 12.75 15.81 12.69 15.92 12.62C16.4 11.77 16.64 10.72 16.62 9.5L16.63 9.51ZM17.4 9.5C17.2 9.51 16.99 9.52 16.77 9.51C16.79 10.65 16.58 11.65 16.17 12.48C16.25 12.43 16.33 12.37 16.4 12.31C16.97 11.57 17.3 10.62 17.39 9.5H17.4ZM16.69 7.86C16.69 8.08 16.69 8.31 16.72 8.55H16.89C17.07 8.57 17.25 8.58 17.42 8.58C17.42 8.41 17.4 8.23 17.39 8.05V7.88C17.14 7.86 16.91 7.85 16.69 7.85V7.86ZM17.37 7.74C17.35 7.51 17.34 7.29 17.34 7.07C17.13 7.07 16.92 7.08 16.72 7.1C16.7 7.3 16.69 7.5 16.69 7.71C16.91 7.71 17.14 7.71 17.37 7.74ZM16.88 8.7H16.73V8.85C16.75 9.03 16.76 9.2 16.76 9.38C16.98 9.38 17.19 9.38 17.4 9.37C17.41 9.17 17.42 8.96 17.41 8.75C17.23 8.75 17.05 8.73 16.87 8.72L16.88 8.7ZM18.09 9.42C17.91 9.45 17.73 9.47 17.55 9.48C17.48 10.42 17.23 11.25 16.83 11.94C17.47 11.3 17.9 10.44 18.09 9.42ZM17.52 7.75H17.69C17.86 7.77 18.04 7.78 18.21 7.78C18.21 7.61 18.19 7.44 18.18 7.27V7.1C17.94 7.08 17.71 7.07 17.49 7.07C17.49 7.29 17.49 7.52 17.52 7.75ZM18.18 8.72C17.98 8.73 17.78 8.74 17.57 8.73C17.57 8.94 17.57 9.14 17.56 9.34C17.75 9.32 17.94 9.3 18.12 9.27C18.15 9.09 18.17 8.9 18.19 8.71L18.18 8.72ZM18.21 7.93C18.04 7.93 17.86 7.91 17.68 7.9H17.53V8.05C17.55 8.23 17.56 8.41 17.56 8.59C17.77 8.59 17.98 8.59 18.19 8.58C18.2 8.37 18.21 8.16 18.2 7.94L18.21 7.93ZM20.78 7.98C20.09 8.38 19.26 8.63 18.32 8.7C18.31 8.88 18.28 9.06 18.26 9.24C19.28 9.05 20.14 8.62 20.78 7.98ZM18.3 6.96H18.47L18.27 6.47C18.27 6.63 18.28 6.79 18.29 6.96H18.3ZM21.32 7.33C20.49 7.75 19.49 7.95 18.35 7.93C18.35 8.14 18.35 8.35 18.34 8.56C19.46 8.47 20.41 8.13 21.15 7.57C21.21 7.49 21.26 7.42 21.32 7.34V7.33ZM21.64 6.75C21.03 6.98 20.34 7.12 19.58 7.14L19.19 7.53C19.02 7.7 18.73 7.64 18.64 7.42L18.52 7.12C18.52 7.12 18.48 7.12 18.46 7.12H18.3L18.31 7.27C18.33 7.45 18.34 7.62 18.34 7.8C19.56 7.82 20.61 7.58 21.46 7.1C21.52 6.99 21.58 6.88 21.63 6.76L21.64 6.75ZM22.1 6.55C22.01 6.59 21.93 6.63 21.84 6.67C21.8 6.76 21.76 6.85 21.72 6.94C21.8 6.89 21.87 6.84 21.95 6.78C22.01 6.71 22.06 6.63 22.11 6.55H22.1ZM22.37 6.4C22.37 6.4 22.37 6.4 22.38 6.39L22.37 6.4ZM22.95 3.45C22.73 3.45 22.51 3.45 22.29 3.42C22.37 4.57 22.25 5.6 21.91 6.47C22.03 6.42 22.14 6.36 22.25 6.3C22.7 5.52 22.93 4.56 22.95 3.45ZM23.86 3.26C24.04 3.24 24.22 3.21 24.4 3.17C24.44 3 24.46 2.81 24.49 2.63C24.3 2.65 24.1 2.66 23.9 2.66C23.9 2.86 23.89 3.06 23.87 3.25L23.86 3.26ZM23.15 5.62C23.75 5.02 24.15 4.25 24.37 3.33C24.2 3.36 24.03 3.39 23.85 3.41C23.76 4.25 23.52 5 23.15 5.63V5.62ZM23.07 2.64C23.09 2.87 23.1 3.09 23.1 3.31C23.31 3.31 23.52 3.3 23.72 3.28C23.74 3.08 23.75 2.88 23.75 2.67C23.53 2.67 23.3 2.67 23.07 2.64ZM22.5 6.15C22.58 6.1 22.66 6.04 22.73 5.98C23.25 5.29 23.58 4.43 23.7 3.41C23.5 3.43 23.3 3.44 23.1 3.44C23.08 4.47 22.88 5.38 22.5 6.14V6.15ZM22.93 2.63H22.75C22.58 2.6 22.41 2.59 22.24 2.59C22.24 2.76 22.26 2.93 22.27 3.1V3.28C22.51 3.3 22.74 3.31 22.96 3.31C22.96 3.09 22.96 2.86 22.93 2.63ZM22.24 2.44C22.41 2.44 22.59 2.46 22.77 2.47H22.92L22.91 2.32C22.89 2.14 22.88 1.96 22.88 1.78C22.67 1.78 22.46 1.78 22.25 1.79C22.24 2 22.23 2.21 22.24 2.43V2.44ZM22.09 2.58C21.87 2.58 21.66 2.58 21.46 2.59L21.59 2.91C21.62 2.97 21.6 3.04 21.55 3.09L21.42 3.22C21.6 3.22 21.78 3.24 21.97 3.25H22.13L22.12 3.1C22.1 2.92 22.09 2.75 22.09 2.57V2.58ZM19.13 3.04C19.96 2.62 20.96 2.42 22.1 2.44C22.1 2.23 22.1 2.02 22.11 1.81C20.99 1.9 20.04 2.24 19.3 2.8C19.24 2.88 19.19 2.95 19.13 3.03V3.04ZM18.8 3.62C19.4 3.39 20.08 3.26 20.82 3.23L21.45 2.6C20.5 2.66 19.66 2.89 18.97 3.29C18.91 3.4 18.85 3.51 18.79 3.63L18.8 3.62ZM18.72 3.81C18.48 4.4 18.33 5.06 18.29 5.79C18.32 5.74 18.35 5.7 18.39 5.66L19.52 4.53L19.65 4.86C19.67 4.92 19.66 4.99 19.61 5.04L18.45 6.2L18.68 6.12L19.03 6.99C19.03 6.99 19.09 6.99 19.12 6.99L20.11 6L20.24 6.33C20.27 6.39 20.25 6.46 20.2 6.51L19.74 6.97C20.48 6.93 21.14 6.78 21.73 6.54C22.1 5.66 22.24 4.6 22.15 3.4H21.97C21.74 3.37 21.51 3.36 21.29 3.35L20.3 4.34L20.52 4.26L20.6 4.46L21.4 3.66C21.57 3.49 21.86 3.55 21.95 3.77L22.07 4.07C22.17 4.32 22.11 4.6 21.92 4.79L20.7 6.01L20.57 5.68C20.55 5.62 20.56 5.55 20.61 5.5L21.69 4.42L21.57 4.11L20.86 4.82L20.77 4.91C20.6 5.08 20.31 5.02 20.22 4.8L20.17 4.68L20.1 4.51C20 4.26 20.06 3.97 20.25 3.78L20.68 3.35C19.96 3.4 19.3 3.54 18.73 3.78L18.72 3.81ZM18.34 3.83C18.43 3.79 18.51 3.75 18.6 3.71C18.64 3.62 18.68 3.53 18.72 3.44C18.64 3.49 18.57 3.54 18.49 3.6C18.43 3.67 18.38 3.75 18.33 3.83H18.34ZM18.08 3.97C18.08 3.97 18.08 3.97 18.07 3.98L18.08 3.97ZM17.49 6.93C17.71 6.93 17.93 6.93 18.15 6.96C18.06 5.8 18.19 4.77 18.52 3.9C18.4 3.95 18.29 4.01 18.18 4.07C17.73 4.85 17.49 5.82 17.48 6.93H17.49ZM16.74 6.96C16.94 6.94 17.14 6.93 17.34 6.93C17.35 5.9 17.56 4.98 17.94 4.22C17.86 4.27 17.78 4.33 17.71 4.39C17.18 5.08 16.86 5.95 16.74 6.96ZM16.07 7.05C16.24 7.02 16.41 6.99 16.59 6.97C16.68 6.13 16.92 5.38 17.29 4.74C16.69 5.34 16.28 6.12 16.07 7.04V7.05ZM15.96 7.75C16.15 7.73 16.35 7.72 16.55 7.72C16.55 7.52 16.56 7.32 16.58 7.13C16.4 7.15 16.21 7.18 16.04 7.21C16 7.39 15.98 7.57 15.96 7.75ZM15.91 8.51C16.13 8.51 16.35 8.51 16.58 8.54C16.56 8.31 16.55 8.08 16.55 7.86C16.34 7.86 16.14 7.87 15.94 7.89C15.92 8.09 15.91 8.3 15.91 8.51ZM15.91 8.66C15.91 8.88 15.91 9.1 15.94 9.33H16.12C16.3 9.35 16.47 9.36 16.64 9.36C16.64 9.19 16.62 9.02 16.61 8.85V8.68C16.37 8.66 16.14 8.65 15.92 8.65L15.91 8.66ZM13.58 8.46C14.21 8.09 14.96 7.85 15.81 7.76C15.83 7.58 15.86 7.41 15.89 7.24C14.96 7.45 14.19 7.86 13.59 8.46H13.58ZM15.81 9.64V9.47C15.6 9.45 15.4 9.45 15.21 9.44L14.15 10.5L14.37 10.42L14.45 10.62L15.25 9.82C15.42 9.65 15.71 9.71 15.8 9.93L15.83 10C15.83 9.88 15.82 9.76 15.81 9.64ZM13.05 9.11C13.81 8.73 14.73 8.52 15.76 8.51C15.76 8.3 15.77 8.1 15.79 7.91C14.77 8.03 13.9 8.35 13.22 8.88C13.16 8.96 13.11 9.03 13.05 9.11ZM12.79 9.26C12.79 9.26 12.79 9.26 12.78 9.27L12.79 9.26ZM12.73 9.69C13.33 9.46 14.01 9.33 14.75 9.3L15.32 8.73L15.45 9.06C15.48 9.12 15.46 9.19 15.41 9.24L15.35 9.3C15.49 9.3 15.64 9.31 15.78 9.32C15.76 9.09 15.75 8.87 15.75 8.66C14.64 8.68 13.67 8.91 12.89 9.36C12.83 9.47 12.77 9.58 12.72 9.7L12.73 9.69ZM12.64 9.88C12.4 10.46 12.26 11.11 12.21 11.84C12.22 11.83 12.23 11.81 12.24 11.8L13.37 10.67L13.5 11C13.52 11.06 13.51 11.13 13.46 11.18L12.3 12.34L12.53 12.26L12.91 13.2L13.96 12.15L14.09 12.48C14.11 12.54 14.1 12.61 14.05 12.66L13.4 13.31C14.14 13.27 14.8 13.12 15.39 12.88C15.63 12.29 15.78 11.62 15.82 10.88C15.8 10.9 15.79 10.92 15.77 10.94L14.55 12.16L14.42 11.83C14.4 11.77 14.41 11.7 14.46 11.65L15.54 10.57L15.42 10.26L14.71 10.97L14.62 11.06C14.45 11.23 14.16 11.17 14.07 10.95L14.02 10.83L13.95 10.66C13.85 10.41 13.91 10.12 14.1 9.93L14.59 9.44C13.87 9.49 13.21 9.63 12.64 9.87V9.88ZM12.27 9.9C12.36 9.86 12.45 9.81 12.54 9.78C12.58 9.69 12.62 9.6 12.66 9.52C12.58 9.57 12.5 9.63 12.43 9.68C12.37 9.75 12.32 9.83 12.27 9.91V9.9ZM11.41 13.26C11.58 13.26 11.76 13.28 11.94 13.29H12.1L12.09 13.14C12.06 12.85 12.05 12.56 12.06 12.29C12.06 12.27 12.06 12.25 12.06 12.23C12.07 11.39 12.21 10.64 12.46 9.97C12.34 10.02 12.23 10.08 12.12 10.14C11.64 10.99 11.4 12.04 11.42 13.26H11.41ZM10.64 13.27C10.84 13.26 11.05 13.25 11.27 13.26C11.25 12.12 11.46 11.12 11.87 10.29C11.79 10.34 11.71 10.4 11.64 10.46C11.07 11.2 10.74 12.15 10.65 13.27H10.64ZM9.95999 13.35C10.14 13.32 10.32 13.3 10.5 13.29C10.57 12.35 10.82 11.52 11.22 10.83C10.58 11.47 10.15 12.33 9.95999 13.35ZM10.53 15.02H10.36C10.18 15 10.01 14.99 9.83999 14.99C9.83999 15.16 9.85999 15.33 9.86999 15.5V15.67C10.11 15.69 10.34 15.7 10.56 15.7C10.56 15.48 10.56 15.25 10.53 15.02ZM9.85999 14.05C10.06 14.04 10.26 14.03 10.47 14.04C10.47 13.83 10.47 13.63 10.48 13.43C10.29 13.45 10.1 13.47 9.91999 13.5C9.88999 13.68 9.86999 13.87 9.84999 14.06L9.85999 14.05ZM9.83999 14.84C10.01 14.84 10.19 14.86 10.37 14.87H10.52V14.72C10.5 14.54 10.49 14.36 10.49 14.18C10.28 14.18 10.07 14.18 9.85999 14.19C9.84999 14.4 9.83999 14.61 9.84999 14.83L9.83999 14.84ZM9.51999 18.87C9.63999 18.82 9.74999 18.76 9.85999 18.7C10.31 17.92 10.55 16.95 10.56 15.84C10.34 15.84 10.12 15.84 9.89999 15.81C9.98999 16.97 9.85999 18 9.52999 18.87H9.51999ZM7.25999 14.79C7.94999 14.39 8.77999 14.14 9.71999 14.07C9.72999 13.89 9.75999 13.71 9.77999 13.53C8.75999 13.72 7.89999 14.15 7.25999 14.79ZM6.72999 15.44C7.55999 15.02 8.55999 14.82 9.69999 14.84C9.69999 14.63 9.69999 14.42 9.70999 14.21C8.58999 14.3 7.63999 14.64 6.89999 15.2C6.83999 15.28 6.78999 15.35 6.72999 15.43V15.44ZM6.39999 16.02C6.99999 15.79 7.67999 15.66 8.41999 15.63L9.03999 15.01L9.16999 15.34C9.19999 15.4 9.17999 15.47 9.12999 15.52L9.01999 15.63C9.19999 15.63 9.37999 15.64 9.56999 15.66H9.72999L9.71999 15.51C9.69999 15.33 9.68999 15.16 9.68999 14.98C8.46999 14.96 7.40999 15.2 6.56999 15.68C6.50999 15.79 6.44999 15.9 6.38999 16.02H6.39999ZM6.31999 16.21C6.07999 16.79 5.92999 17.45 5.88999 18.18C5.90999 18.14 5.93999 18.11 5.96999 18.08L7.09999 16.95L7.22999 17.28C7.24999 17.34 7.23999 17.41 7.18999 17.46L6.02999 18.62L6.25999 18.54L6.59999 19.4C6.59999 19.4 6.67999 19.4 6.71999 19.4L7.68999 18.43L7.81999 18.76C7.84999 18.82 7.82999 18.89 7.77999 18.94L7.33999 19.38C8.07999 19.34 8.73999 19.19 9.32999 18.95C9.69999 18.07 9.83999 17 9.74999 15.8H9.56999C9.33999 15.78 9.10999 15.76 8.88999 15.76L7.87999 16.77L8.09999 16.69L8.17999 16.89L8.97999 16.09C9.14999 15.92 9.43999 15.98 9.52999 16.2L9.64999 16.5C9.74999 16.75 9.68999 17.03 9.49999 17.22L8.27999 18.44L8.14999 18.11C8.12999 18.05 8.13999 17.98 8.18999 17.93L9.26999 16.85L9.14999 16.54L8.43999 17.25L8.34999 17.34C8.17999 17.51 7.88999 17.45 7.79999 17.23L7.74999 17.11L7.67999 16.94C7.57999 16.69 7.63999 16.4 7.82999 16.21L8.26999 15.77C7.54999 15.82 6.88999 15.96 6.31999 16.2V16.21ZM5.93999 16.23C6.02999 16.19 6.10999 16.15 6.19999 16.11C6.23999 16.02 6.27999 15.93 6.31999 15.84C6.23999 15.89 6.16999 15.94 6.08999 16C6.02999 16.07 5.97999 16.15 5.92999 16.23H5.93999ZM5.67999 16.37C5.67999 16.37 5.67999 16.37 5.66999 16.38L5.67999 16.37ZM5.08999 19.32C5.30999 19.32 5.52999 19.32 5.74999 19.35C5.66999 18.2 5.78999 17.17 6.11999 16.3C6.00999 16.35 5.88999 16.41 5.77999 16.47C5.32999 17.25 5.09999 18.21 5.07999 19.32H5.08999ZM4.33999 19.35C4.53999 19.33 4.73999 19.32 4.93999 19.32C4.95999 18.29 5.15999 17.38 5.53999 16.62C5.45999 16.67 5.37999 16.73 5.30999 16.79C4.78999 17.48 4.45999 18.34 4.33999 19.36V19.35ZM3.55999 20.14C3.74999 20.12 3.94999 20.11 4.14999 20.11C4.14999 19.91 4.15999 19.71 4.17999 19.52C3.99999 19.54 3.81999 19.57 3.63999 19.61C3.59999 19.78 3.57999 19.96 3.54999 20.15L3.55999 20.14ZM3.50999 20.9C3.72999 20.9 3.94999 20.9 4.17999 20.93C4.15999 20.7 4.14999 20.47 4.14999 20.25C3.93999 20.25 3.73999 20.26 3.53999 20.28C3.51999 20.48 3.50999 20.69 3.50999 20.9ZM4.22999 21.76C4.22999 21.59 4.20999 21.42 4.19999 21.25V21.07C3.95999 21.05 3.72999 21.04 3.50999 21.04C3.50999 21.26 3.50999 21.48 3.53999 21.71H3.71999C3.88999 21.74 4.05999 21.75 4.22999 21.75V21.76ZM4.88999 17.15C4.28999 17.75 3.88999 18.52 3.66999 19.44C3.83999 19.41 4.00999 19.38 4.18999 19.36C4.27999 18.52 4.51999 17.77 4.88999 17.14V17.15ZM3.76999 24.88C3.84999 24.83 3.92999 24.77 3.99999 24.71C4.56999 23.97 4.89998 23.02 4.98998 21.9C4.78998 21.91 4.57999 21.92 4.35999 21.91C4.37999 23.05 4.16999 24.05 3.75999 24.88H3.76999ZM6.19999 11.86L5.39999 12.66L5.94999 13.21L5.62999 13.53L4.18999 12.09L5.30999 10.97C5.48999 10.79 5.75999 10.78 5.91999 10.94L6.17999 11.2C6.25999 11.28 6.29999 11.39 6.26999 11.52C6.38999 11.49 6.48999 11.52 6.56999 11.59L7.06999 12.09L6.74999 12.41L6.19999 11.86ZM5.92999 11.59L5.57999 11.24L4.77999 12.04L5.12999 12.39L5.92999 11.59ZM0.639985 16.6C0.639985 16.83 0.659985 17.05 0.669985 17.27L1.27999 17.88L1.59999 17.56L1.04999 17.01L1.84999 16.21L2.39999 16.76L2.71999 16.44L2.21999 15.94C2.13999 15.87 2.03999 15.84 1.91999 15.87C1.94999 15.74 1.91999 15.63 1.82999 15.55L1.56999 15.29C1.40999 15.13 1.13999 15.15 0.959985 15.32L0.629985 15.65C0.629985 15.78 0.609985 15.9 0.609985 16.03C0.609985 16.09 0.609985 16.15 0.609985 16.21L1.21999 15.6L1.56999 15.95L0.769985 16.75L0.629985 16.61L0.639985 16.6ZM25.92 7.34L25.12 8.14L25.67 8.69L25.35 9.01L23.91 7.57L25.03 6.45C25.21 6.27 25.48 6.26 25.64 6.42L25.9 6.68C25.98 6.76 26.02 6.87 25.99 7C26.11 6.97 26.21 7 26.29 7.07L26.79 7.57L26.47 7.89L25.92 7.34ZM25.65 7.07L25.3 6.72L24.5 7.52L24.85 7.87L25.65 7.07ZM28.02 5.15C27.93 5.06 27.85 4.96 27.76 4.87L27.73 4.9L28 5.17L28.02 5.15ZM4.09999 12.75L4.95999 13.61C5.11999 13.77 5.09999 14.04 4.92999 14.22L4.12999 15.02C3.94999 15.2 3.67999 15.21 3.51999 15.05L2.65999 14.19C2.49999 14.03 2.51999 13.76 2.68999 13.58L3.48999 12.78C3.66999 12.6 3.93999 12.59 4.09999 12.75ZM4.65999 13.95L3.75999 13.05L2.95999 13.85L3.85999 14.75L4.65999 13.95ZM27.16 4.32L26.75 4.73C26.57 4.91 26.56 5.18 26.72 5.34L27.58 6.2C27.74 6.36 28.01 6.34 28.19 6.17L28.58 5.78C28.5 5.68 28.41 5.59 28.32 5.5L27.92 5.9L27.02 5L27.44 4.58C27.35 4.49 27.25 4.41 27.16 4.32ZM15.58 3.58L15.31 3.31L14.43 4.19L13.26 3.02L12.94 3.34L14.38 4.78L15.58 3.58ZM0.759985 18.09C0.769985 18.18 0.789985 18.27 0.799985 18.37L0.919985 18.25L0.759985 18.09ZM10.29 8.87L8.84999 7.43L8.52998 7.75L9.96999 9.19L10.29 8.87ZM7.77999 11.38L6.33999 9.94L6.01999 10.26L7.45999 11.7L7.77999 11.38ZM8.46999 10.69L9.26999 9.89C9.44999 9.71 9.45999 9.44 9.29999 9.28L8.71999 8.7L7.99999 9.42L8.26999 9.69L8.66999 9.29L8.98999 9.61L8.18999 10.41L7.28999 9.51L8.08999 8.71L8.24999 8.87L8.56998 8.55L8.42999 8.41C8.26999 8.25 7.99999 8.27 7.81999 8.44L7.01999 9.24C6.83999 9.42 6.82998 9.69 6.98998 9.85L7.84999 10.71C8.00999 10.87 8.27999 10.85 8.45999 10.68L8.46999 10.69Z" fill="url(#paint1_radial_31_37)"/>
<path d="M14.89 22.4C14.37 22.4 13.89 22.14 13.6 21.71C13.58 21.69 13.57 21.66 13.55 21.64C13.1 22.12 12.46 22.41 11.79 22.41H4.55C3.45 22.41 2.44 21.86 1.83 20.95C1.23 20.04 1.12 18.89 1.55 17.88C3.03667 14.3933 3.78 12.6467 3.78 12.64C4.56 10.82 6.35 9.64001 8.34 9.64001H16.49C17.01 9.64001 17.49 9.90001 17.78 10.33C17.89 10.49 17.96 10.68 18 10.87C18.9 10.08 20.07 9.64001 21.28 9.64001H30.1C30.62 9.64001 31.1 9.90001 31.38 10.33C31.66 10.76 31.72 11.31 31.51 11.78L30.81 13.44C30.45 14.3 29.62 14.86 28.7 14.9C29.25 15.8 29.33 16.9 28.92 17.88L28.27 19.39C27.49 21.22 25.69 22.41 23.7 22.41H14.88L14.89 22.4Z" fill="url(#paint2_linear_31_37)"/>
<path d="M17.55 10.44L13.65 14.82L5.43999 22.13H4.93999L12.49 13.65L16.72 9.88001C17.05 9.95001 17.35 10.15 17.55 10.44ZM17.77 11.29C17.77 11.29 17.76 11.21 17.76 11.16L13.65 14.82L7.13999 22.13H7.90999L14.81 15.98L20.18 9.95001C19.26 10.15 18.42 10.61 17.77 11.28V11.29ZM24.18 9.85001L15.98 17.15L11.54 22.13H11.77C12.49 22.13 13.15 21.78 13.56 21.21C13.58 21.28 13.62 21.35 13.66 21.42L17.14 18.32L24.68 9.85001H24.18ZM21.71 9.85001L14.82 15.99L9.34999 22.14H10.39L15.99 17.16L22.49 9.86001H21.72L21.71 9.85001ZM8.35999 9.85001C7.82999 9.85001 7.32999 9.94001 6.83999 10.11L3.52999 13.83C3.28999 14.4 2.98999 15.1 2.70999 15.76L8.99999 10.16L9.27999 9.85001H8.36999H8.35999ZM14.29 9.85001L11.32 12.49L3.09999 21.73C3.16999 21.77 3.23999 21.8 3.30999 21.83L12.49 13.66L15.88 9.85001H14.29ZM9.34999 9.85001L8.99999 10.16L1.64999 18.41C1.60999 18.6 1.58999 18.78 1.57999 18.97L10.16 11.33L11.48 9.85001H9.34999ZM11.82 9.85001L10.16 11.33L1.94999 20.55C1.98999 20.62 2.00999 20.69 2.04999 20.75L11.32 12.49L13.67 9.85001H11.81H11.82ZM6.38999 10.28C5.52999 10.67 4.79999 11.31 4.29999 12.14L6.38999 10.28ZM27.36 20.22L25.94 21.49C26.49 21.17 26.98 20.74 27.36 20.22ZM22.74 22.13H23.57C24.04 22.13 24.49 22.06 24.92 21.93L28.5 17.91L28.57 17.75C28.71 17.43 28.77 17.09 28.79 16.74L22.74 22.13ZM28.67 14.65C28.93 14.62 29.17 14.55 29.4 14.44L30.54 13.16L30.66 12.89L28.68 14.65H28.67ZM19.47 20.64L18.14 22.13H20.27L20.63 21.81L30.09 11.19L19.46 20.65L19.47 20.64ZM22.55 22.13L28.56 15.38C28.5 15.23 28.43 15.08 28.34 14.94L20.63 21.8L20.34 22.12H22.54L22.55 22.13ZM18.31 19.48L15.95 22.13H17.8L19.47 20.64L28.93 10.02L18.31 19.48ZM26.65 9.85001L17.14 18.32L14 21.84C14.23 22.02 14.52 22.14 14.83 22.14H15.32L18.3 19.49L26.87 9.86001H26.64L26.65 9.85001Z" fill="url(#paint3_linear_31_37)"/>
<path d="M5.91999 18.5H13.1L12.42 20.09C12.29 20.39 12 20.58 11.68 20.58H4.84999C3.68999 20.58 2.90999 19.4 3.35999 18.33L5.45999 13.41C5.96999 12.22 7.13999 11.46 8.42999 11.46H16.11L15.44 13.02C15.31 13.32 15.02 13.51 14.7 13.51H6.79999L7.83999 14L5.91999 18.5ZM20.9 11.17C19.52 11.17 18.28 11.99 17.74 13.26L17.38 14.11L17.12 14.71C16.64 15.84 17.47 17.1 18.7 17.1H24.48L23.82 18.65H16.01C15.67 18.65 15.36 18.85 15.22 19.17L14.49 20.86H23.31C24.68 20.86 25.93 20.04 26.47 18.77L27.12 17.26C27.6 16.13 26.77 14.87 25.54 14.87H19.76L20.18 13.87L19.1 13.35H28.21C28.55 13.35 28.87 13.14 29 12.83L29.7 11.17H20.88H20.9Z" fill="url(#paint4_linear_31_37)"/>
</g>
<defs>
<linearGradient id="paint0_linear_31_37" x1="10.93" y1="38.13" x2="25.8" y2="-21.17" gradientUnits="userSpaceOnUse">
<stop offset="0.04" stop-color="#525252"/>
<stop offset="0.13" stop-color="#535454"/>
<stop offset="0.19" stop-color="#585C5C"/>
<stop offset="0.24" stop-color="#616A6B"/>
<stop offset="0.25" stop-color="#677273"/>
<stop offset="0.28" stop-color="#6A7576"/>
<stop offset="0.3" stop-color="#768180"/>
<stop offset="0.33" stop-color="#899491"/>
<stop offset="0.35" stop-color="#A4AFA9"/>
<stop offset="0.37" stop-color="#C6D1C8"/>
<stop offset="0.38" stop-color="#CED9CF"/>
<stop offset="0.41" stop-color="#C5CFC4"/>
<stop offset="0.46" stop-color="#ADB4A8"/>
<stop offset="0.53" stop-color="#87897C"/>
<stop offset="0.55" stop-color="#7A7A6C"/>
<stop offset="0.58" stop-color="#877979"/>
<stop offset="0.63" stop-color="#A9769D"/>
<stop offset="0.71" stop-color="#E072D7"/>
<stop offset="0.73" stop-color="#EF72E7"/>
<stop offset="0.75" stop-color="#EB7BCB"/>
<stop offset="0.79" stop-color="#E29190"/>
<stop offset="0.81" stop-color="#DF9A79"/>
<stop offset="0.82" stop-color="#D47588"/>
<stop offset="0.83" stop-color="#CC5695"/>
<stop offset="0.84" stop-color="#C74C99"/>
<stop offset="0.88" stop-color="#AE6894"/>
<stop offset="0.91" stop-color="#9C7D90"/>
<stop offset="0.95" stop-color="#91898E"/>
<stop offset="0.98" stop-color="#8E8E8E"/>
<stop offset="0.99" stop-color="#8B8797"/>
<stop offset="1" stop-color="#8474B4"/>
</linearGradient>
<radialGradient id="paint1_radial_31_37" cx="0" cy="0" r="1" gradientUnits="userSpaceOnUse" gradientTransform="translate(-6.30001 34.54) scale(62.72)">
<stop offset="0.02" stop-color="#8E8E8E"/>
<stop offset="0.06" stop-color="#93898F"/>
<stop offset="0.08" stop-color="#97848F"/>
<stop offset="0.11" stop-color="#A27692"/>
<stop offset="0.14" stop-color="#B66096"/>
<stop offset="0.16" stop-color="#C94B9A"/>
<stop offset="0.19" stop-color="#CC569C"/>
<stop offset="0.24" stop-color="#D475A4"/>
<stop offset="0.31" stop-color="#E1A7B0"/>
<stop offset="0.39" stop-color="#F3ECC1"/>
<stop offset="0.4" stop-color="#F6F5C4"/>
<stop offset="0.41" stop-color="#D7F0CF"/>
<stop offset="0.43" stop-color="#B5ECDD"/>
<stop offset="0.45" stop-color="#9AE8E7"/>
<stop offset="0.48" stop-color="#87E6EF"/>
<stop offset="0.5" stop-color="#7BE4F3"/>
<stop offset="0.52" stop-color="#79E0F3"/>
<stop offset="0.58" stop-color="#95ABD3"/>
<stop offset="0.64" stop-color="#AB81BA"/>
<stop offset="0.69" stop-color="#BB63A8"/>
<stop offset="0.74" stop-color="#C5519D"/>
<stop offset="0.77" stop-color="#C94B9A"/>
<stop offset="0.78" stop-color="#BD4A9E"/>
<stop offset="0.79" stop-color="#9E4AAA"/>
<stop offset="0.82" stop-color="#6D4ABE"/>
<stop offset="0.83" stop-color="#514AC9"/>
<stop offset="0.84" stop-color="#7671D4"/>
<stop offset="0.85" stop-color="#9B97DF"/>
<stop offset="0.86" stop-color="#BAB7E9"/>
<stop offset="0.88" stop-color="#D3D1F1"/>
<stop offset="0.89" stop-color="#E6E5F7"/>
<stop offset="0.91" stop-color="#F4F4FB"/>
<stop offset="0.93" stop-color="#FCFCFE"/>
<stop offset="0.97" stop-color="white"/>
</radialGradient>
<linearGradient id="paint2_linear_31_37" x1="0.429999" y1="30.47" x2="34.91" y2="-1.45998" gradientUnits="userSpaceOnUse">
<stop offset="0.03" stop-color="#696969"/>
<stop offset="0.06" stop-color="#69696B"/>
<stop offset="0.08" stop-color="#696973"/>
<stop offset="0.1" stop-color="#6A6982"/>
<stop offset="0.11" stop-color="#6B6996"/>
<stop offset="0.12" stop-color="#6D69AE"/>
<stop offset="0.18" stop-color="#6F6FB0"/>
<stop offset="0.25" stop-color="#7781B9"/>
<stop offset="0.35" stop-color="#849FC7"/>
<stop offset="0.45" stop-color="#95C9DA"/>
<stop offset="0.48" stop-color="#9CD8E1"/>
<stop offset="0.51" stop-color="#9FD9DF"/>
<stop offset="0.53" stop-color="#ABDCDC"/>
<stop offset="0.56" stop-color="#BEE3D5"/>
<stop offset="0.58" stop-color="#D9EBCD"/>
<stop offset="0.6" stop-color="#F6F5C4"/>
<stop offset="0.62" stop-color="#F4F3B6"/>
<stop offset="0.65" stop-color="#F1EE92"/>
<stop offset="0.67" stop-color="#EFEB72"/>
<stop offset="0.71" stop-color="#E3B176"/>
<stop offset="0.73" stop-color="#DF9A79"/>
<stop offset="0.77" stop-color="#D47588"/>
<stop offset="0.82" stop-color="#CC5695"/>
<stop offset="0.84" stop-color="#C74C99"/>
<stop offset="0.88" stop-color="#AE6894"/>
<stop offset="0.91" stop-color="#9C7D90"/>
<stop offset="0.95" stop-color="#91898E"/>
<stop offset="0.98" stop-color="#8E8E8E"/>
<stop offset="0.99" stop-color="#8B8797"/>
<stop offset="1" stop-color="#8474B4"/>
</linearGradient>
<linearGradient id="paint3_linear_31_37" x1="-10.15" y1="35.3" x2="33.01" y2="3.38001" gradientUnits="userSpaceOnUse">
<stop offset="0.03" stop-color="#696969"/>
<stop offset="0.15" stop-color="#69696B"/>
<stop offset="0.23" stop-color="#696973"/>
<stop offset="0.28" stop-color="#6A6982"/>
<stop offset="0.34" stop-color="#6B6996"/>
<stop offset="0.38" stop-color="#6D69AE"/>
<stop offset="0.4" stop-color="#6F6FB0"/>
<stop offset="0.42" stop-color="#7781B9"/>
<stop offset="0.44" stop-color="#849FC7"/>
<stop offset="0.47" stop-color="#95C9DA"/>
<stop offset="0.48" stop-color="#9CD8E1"/>
<stop offset="0.51" stop-color="#9FD9DF"/>
<stop offset="0.53" stop-color="#ABDCDC"/>
<stop offset="0.56" stop-color="#BEE3D5"/>
<stop offset="0.58" stop-color="#D9EBCD"/>
<stop offset="0.6" stop-color="#F6F5C4"/>
<stop offset="0.62" stop-color="#F4F3B6"/>
<stop offset="0.65" stop-color="#F1EE92"/>
<stop offset="0.67" stop-color="#EFEB72"/>
<stop offset="0.71" stop-color="#E3B176"/>
<stop offset="0.73" stop-color="#DF9A79"/>
<stop offset="0.77" stop-color="#D47588"/>
<stop offset="0.82" stop-color="#CC5695"/>
<stop offset="0.84" stop-color="#C74C99"/>
<stop offset="0.88" stop-color="#AE6894"/>
<stop offset="0.91" stop-color="#9C7D90"/>
<stop offset="0.95" stop-color="#91898E"/>
<stop offset="0.98" stop-color="#8E8E8E"/>
<stop offset="0.99" stop-color="#8B8797"/>
<stop offset="1" stop-color="#8474B4"/>
</linearGradient>
<linearGradient id="paint4_linear_31_37" x1="25.86" y1="7.64001" x2="-0.0200092" y2="29.8" gradientUnits="userSpaceOnUse">
<stop stop-color="#878787"/>
<stop offset="1" stop-color="#333333"/>
</linearGradient>
<clipPath id="clip0_31_37">
<rect width="32" height="32" fill="white" transform="translate(0.5)"/>
</clipPath>
</defs>
</svg>
